<svg width="254" height="200" viewBox="0 0 254 200" fill="none" xmlns="http://www.w3.org/2000/svg">
<path d="M111.891 118.314C111.891 118.314 125.865 91.3795 62.9658 64.4446L0.0772309 37.5098C0.0772309 37.5098 -6.90432 109.347 111.891 118.314Z" fill="#065B8B"/>
<path d="M137.469 148.218C137.469 148.218 122.971 127.294 69.6498 126.836L16.3281 126.378C16.3281 126.378 56.6793 182.964 137.48 148.229L137.469 148.218Z" fill="#065B8B"/>
<path d="M157.124 162.931C157.124 162.931 144.415 146.196 109.18 169.574L73.9453 192.942C73.9453 192.942 116.707 221.764 157.124 162.92V162.931Z" fill="#065B8B"/>
<path d="M114.663 10.2328V123.198C114.663 126.067 116.987 128.402 119.867 128.402H248.687C251.982 128.402 253.738 130.147 253.738 133.452V133.834C253.738 137.129 251.993 138.885 248.687 138.885H104.158C98.5074 138.885 93.9258 134.303 93.9258 128.652V10.2328C93.9258 4.58187 98.5074 0 104.158 0H104.431C110.082 0 114.663 4.58187 114.663 10.2328Z" fill="#065B8B"/>
<path d="M208.532 45.5491L252.756 174.529C253.923 178.02 252.363 180.354 248.676 180.354H238.597C235.488 180.354 233.742 179.002 232.771 176.274L220.935 139.041H170.701L158.865 176.274C157.894 178.991 156.149 180.354 153.04 180.354H143.538C139.851 180.354 138.302 178.031 139.458 174.529L183.682 45.5491C184.653 42.8327 188.286 34.8145 195.965 34.8145C202.587 34.8145 207.529 42.8436 208.499 45.5491H208.51H208.532ZM218.034 129.343L195.922 60.2875L173.81 129.343H218.034Z" fill="#065B8B"/>
</svg>
