<svg width="400" height="400" viewBox="0 0 400 400" fill="none" xmlns="http://www.w3.org/2000/svg">
<path d="M216.88 312.646C224.045 312.646 229.853 306.838 229.853 299.673C229.853 292.508 224.045 286.699 216.88 286.699C209.715 286.699 203.906 292.508 203.906 299.673C203.906 306.838 209.715 312.646 216.88 312.646Z" fill="#CBE8E8"/>
<path d="M180.772 257.409L195.352 242.83C200.645 237.536 209.217 237.536 214.511 242.83L214.617 242.935C219.911 248.229 219.911 256.801 214.617 262.095L199.846 277.243L180.766 257.409H180.772Z" fill="#CBE8E8"/>
<path d="M208.453 298.727L219.265 294.57" stroke="#333333" stroke-width="6" stroke-linecap="round" stroke-linejoin="round"/>
<path d="M213.855 310.617C221.568 310.617 227.82 304.365 227.82 296.652C227.82 288.94 221.568 282.688 213.855 282.688C206.143 282.688 199.891 288.94 199.891 296.652C199.891 304.365 206.143 310.617 213.855 310.617Z" stroke="#333333" stroke-width="6" stroke-linecap="round" stroke-linejoin="round"/>
<path d="M209.183 242.009L209.178 242.005C203.859 236.685 195.235 236.685 189.915 242.005L165.306 266.614C159.987 271.933 159.987 280.558 165.306 285.877L165.311 285.882C170.63 291.201 179.254 291.201 184.574 285.882L209.183 261.272C214.502 255.953 214.502 247.329 209.183 242.009Z" stroke="#333333" stroke-width="6" stroke-linecap="round" stroke-linejoin="round"/>
<path d="M177.641 254.348L196.668 273.375" stroke="#333333" stroke-width="6" stroke-linecap="round" stroke-linejoin="round"/>
<path d="M285.983 137.523H111.625V198.63H285.983V137.523Z" fill="#CBE8E8"/>
<path d="M88 285.703V65.2146C88 64.4282 88.6411 63.7871 89.4275 63.7871H297.617C304.245 63.7871 309.612 69.1602 309.612 75.7824V345.098C309.612 351.727 304.239 357.093 297.617 357.093H89.4275C88.6411 357.093 88 356.452 88 355.666V321.947" stroke="#333333" stroke-width="6" stroke-miterlimit="10" stroke-linecap="round"/>
<path d="M88 307.393V299.244" stroke="#333333" stroke-width="6" stroke-miterlimit="10" stroke-linecap="round"/>
<path d="M114.891 128.971H282.732" stroke="#333333" stroke-width="6" stroke-miterlimit="10" stroke-linecap="round"/>
<path d="M114.891 207.182H282.732" stroke="#333333" stroke-width="6" stroke-miterlimit="10" stroke-linecap="round"/>
<path d="M88 63.7868L292.052 44.0657C300.155 43.2792 307.173 49.6569 307.173 57.7991" stroke="#333333" stroke-width="6" stroke-miterlimit="10" stroke-linecap="round"/>
<path d="M157.511 175.366C157.511 178.743 156.222 181.34 153.638 183.158C151.424 184.717 148.49 185.596 144.828 185.795C144.26 185.821 143.764 185.649 143.341 185.266C142.918 184.883 142.7 184.407 142.7 183.838C142.7 183.329 142.872 182.88 143.209 182.497C143.546 182.113 143.976 181.895 144.485 181.836C150.274 181.267 153.169 179.113 153.169 175.366C153.169 173.746 152.488 172.451 151.127 171.473C149.765 170.495 148.007 170.006 145.846 170.006C143.685 170.006 141.775 170.191 139.931 170.561C138.457 170.845 137.717 171.784 137.717 173.37V182.351C137.717 184.823 136.527 186.052 134.142 186.052C131.756 186.052 129.515 185.358 127.162 183.964C124.466 182.345 123.105 180.514 123.078 178.472C123.078 176.965 123.871 175.372 125.464 173.68C127.057 171.995 129.152 170.495 131.762 169.186C133.071 168.532 133.719 167.527 133.719 166.166V163.569C133.719 162.293 133.064 161.665 131.762 161.698C129.462 161.758 127.691 161.758 126.442 161.698C125.933 161.672 125.49 161.467 125.12 161.084C124.75 160.7 124.565 160.251 124.565 159.742C124.565 159.174 124.763 158.698 125.16 158.314C125.556 157.931 126.039 157.753 126.607 157.779C128.312 157.865 130.057 157.878 131.842 157.825C133.091 157.799 133.712 157.145 133.712 155.869V152.974C133.712 152.432 133.91 151.97 134.307 151.573C134.703 151.177 135.173 150.979 135.714 150.979C136.256 150.979 136.719 151.177 137.116 151.573C137.512 151.97 137.71 152.439 137.71 152.974V155.314C137.71 156.675 138.391 157.257 139.753 157.059C140.691 156.92 141.808 156.735 143.117 156.504C143.711 156.391 144.253 156.523 144.736 156.907C145.218 157.29 145.463 157.792 145.463 158.42C145.463 159.524 144.908 160.178 143.804 160.376C142.555 160.548 141.306 160.714 140.057 160.885C138.497 161.255 137.717 161.976 137.717 163.053V165.009C137.717 166.146 138.226 166.714 139.25 166.714C139.449 166.714 139.647 166.701 139.845 166.675C141.775 166.305 143.665 166.12 145.509 166.12C148.946 166.12 151.721 166.84 153.849 168.287C156.288 169.933 157.511 172.286 157.511 175.352V175.366ZM133.719 179.371V174.989C133.719 173.852 133.296 173.284 132.443 173.284C132.099 173.284 131.749 173.396 131.379 173.627C128.768 175.22 127.46 176.767 127.46 178.267C127.46 179.146 128.127 179.939 129.462 180.653C130.711 181.334 131.65 181.677 132.271 181.677C133.236 181.677 133.719 180.911 133.719 179.377V179.371ZM158.278 161.487C158.278 162.055 158.079 162.551 157.683 162.974C157.286 163.397 156.804 163.615 156.235 163.615C155.667 163.615 155.231 163.43 154.828 163.06C153.235 161.586 151.365 160.277 149.21 159.141C148.503 158.77 148.146 158.189 148.146 157.396C148.146 156.827 148.344 156.345 148.741 155.948C149.137 155.552 149.607 155.354 150.142 155.354C150.486 155.354 150.796 155.426 151.08 155.565C153.466 156.788 155.621 158.235 157.551 159.907C158.033 160.33 158.271 160.859 158.271 161.48L158.278 161.487Z" fill="#333333"/>
<path d="M190.674 184.644C190.674 185.298 190.449 185.847 189.993 186.303C189.537 186.759 188.988 186.984 188.334 186.984C187.68 186.984 187.111 186.726 186.629 186.217C181.236 180.573 175.79 175.702 170.285 171.618C168.666 170.428 167.859 169.245 167.859 168.082C167.859 166.919 168.785 165.63 170.629 164.381C177.244 159.9 182.63 155.67 186.807 151.692C187.263 151.269 187.772 151.051 188.341 151.051C188.962 151.051 189.497 151.269 189.94 151.712C190.376 152.154 190.601 152.683 190.601 153.311C190.601 153.939 190.363 154.501 189.88 154.93C186.193 158.222 181.54 161.856 175.916 165.828C174.667 166.707 174.045 167.474 174.045 168.128C174.045 168.783 174.653 169.576 175.876 170.514C180.443 173.977 185.155 178.134 190.013 182.985C190.469 183.441 190.693 183.99 190.693 184.644H190.674Z" fill="#333333"/>
<path d="M240.862 158.592C240.862 159.16 240.664 159.643 240.267 160.039C239.871 160.436 239.388 160.634 238.82 160.634C234.366 160.575 231.372 160.561 229.839 160.595C228.451 160.595 227.75 161.321 227.75 162.769V165.108C227.75 166.159 228.034 167.765 228.603 169.92C228.827 170.799 228.946 171.711 228.946 172.643C228.946 176.39 227.922 179.463 225.88 181.862C223.838 184.261 220.672 186.125 216.389 187.46C216.191 187.519 215.98 187.546 215.748 187.546C215.206 187.546 214.73 187.348 214.321 186.951C213.911 186.555 213.706 186.059 213.706 185.464C213.706 184.473 214.202 183.818 215.193 183.508C219.225 182.285 222.033 180.415 223.619 177.89C223.904 177.434 224.042 177.051 224.042 176.74C224.042 176.344 223.831 176.145 223.401 176.145C223.144 176.145 222.846 176.231 222.509 176.403C221.716 176.8 220.85 176.998 219.912 176.998C217.81 176.998 216.125 176.476 214.843 175.425C213.455 174.262 212.754 172.656 212.754 170.614C212.754 168.572 213.534 166.794 215.094 165.545C216.541 164.381 218.346 163.8 220.5 163.8C220.698 163.8 220.996 163.813 221.392 163.84C221.789 163.866 222.073 163.879 222.245 163.879C223.071 163.879 223.481 163.522 223.481 162.815C223.481 161.368 222.754 160.674 221.306 160.727C216.138 160.925 210.93 161.222 205.683 161.619C205.088 161.678 204.566 161.5 204.13 161.09C203.687 160.68 203.469 160.172 203.469 159.577C203.469 158.982 203.66 158.533 204.044 158.149C204.427 157.766 204.89 157.561 205.425 157.535L221.26 156.768C222.622 156.708 223.302 156.074 223.302 154.851V152.935C223.302 152.34 223.52 151.824 223.963 151.382C224.406 150.939 224.921 150.721 225.516 150.721C226.111 150.721 226.62 150.932 227.05 151.362C227.473 151.785 227.691 152.3 227.691 152.895V154.514C227.691 155.962 228.398 156.669 229.819 156.642C234.101 156.583 237.115 156.57 238.847 156.603C239.415 156.603 239.891 156.794 240.274 157.178C240.657 157.561 240.849 158.037 240.849 158.605L240.862 158.592ZM223.236 170.772C223.349 170.376 223.408 170.006 223.408 169.669C223.408 168.591 222.952 167.864 222.047 167.494C221.564 167.296 220.996 167.197 220.341 167.197C219.377 167.197 218.557 167.507 217.896 168.135C217.229 168.757 216.898 169.543 216.898 170.475C216.898 172.431 217.936 173.409 220.004 173.409C221.71 173.409 222.787 172.53 223.236 170.772Z" fill="#333333"/>
<path d="M259.902 167.111C258.429 169.636 257.193 172.094 256.201 174.474C255.778 175.498 255.051 176.007 254.027 176.007C252.606 176.007 251.787 175.267 251.555 173.793C251.297 172.121 251.172 169.61 251.172 166.259C251.172 162.908 251.654 158.896 252.619 154.297C252.903 152.909 253.644 152.208 254.833 152.208C255.428 152.208 255.924 152.413 256.32 152.823C256.717 153.232 256.915 153.735 256.915 154.336C256.915 154.508 256.902 154.68 256.875 154.845C255.851 159.531 255.316 163.06 255.256 165.446C255.23 166.384 255.441 166.854 255.897 166.854C256.267 166.854 256.664 166.51 257.087 165.829L257.298 165.486C257.583 165.03 258.006 164.805 258.574 164.805C259.598 164.805 260.107 165.314 260.107 166.338C260.107 166.622 260.035 166.88 259.896 167.105L259.902 167.111ZM274.548 167.323C274.548 172.121 273.682 176.047 271.95 179.113C270.133 182.292 267.152 184.975 263.009 187.156C262.698 187.328 262.354 187.414 261.984 187.414C261.389 187.414 260.88 187.183 260.451 186.714C260.021 186.244 259.81 185.716 259.81 185.114C259.81 184.321 260.206 183.706 260.999 183.283C264.463 181.466 266.888 179.285 268.276 176.727C269.584 174.375 270.232 171.176 270.232 167.151C270.232 163.49 269.849 159.187 269.082 154.25C268.97 153.596 269.142 153.008 269.591 152.486C270.047 151.964 270.596 151.699 271.25 151.699C271.792 151.699 272.268 151.884 272.677 152.254C273.087 152.624 273.338 153.08 273.424 153.616C274.164 158.923 274.528 163.49 274.528 167.323H274.548Z" fill="#333333"/>
</svg>
