<svg width="400" height="400" viewBox="0 0 400 400" fill="none" xmlns="http://www.w3.org/2000/svg">
<path d="M105.459 245.556C98.7309 241.399 94.25 233.958 94.25 225.465V97.469C94.25 90.034 100.277 84 107.719 84H335.676C343.111 84 349.145 90.0273 349.145 97.469V235.603C349.145 243.038 343.117 249.072 335.676 249.072H175.653" stroke="#333333" stroke-width="6" stroke-linecap="round" stroke-linejoin="round"/>
<path d="M162.331 172.231C175.614 172.231 186.381 161.463 186.381 148.181C186.381 134.898 175.614 124.131 162.331 124.131C149.049 124.131 138.281 134.898 138.281 148.181C138.281 161.463 149.049 172.231 162.331 172.231Z" fill="#CBE8E8"/>
<path d="M138.078 208.937C134.628 208.937 132.104 205.732 132.85 202.368C135.851 188.846 147.912 178.734 162.34 178.734C176.767 178.734 188.828 188.846 191.829 202.368C192.576 205.732 190.044 208.937 186.601 208.937H138.085H138.078Z" fill="#CBE8E8"/>
<path d="M121.906 281.76C121.906 281.76 130.319 238.445 131.502 228.796C132.375 221.645 136.995 215.803 143.769 215.803C150.543 215.803 155.592 221.771 156.035 228.796C156.683 239.152 155.473 284.748 155.473 284.748C155.473 290.729 154.442 296.67 152.42 302.301L147.252 316.715C146.544 318.698 146.141 320.773 146.055 322.875L144.945 351.333" stroke="#333333" stroke-width="6" stroke-linecap="round" stroke-linejoin="round"/>
<path d="M93.1383 171.828L73.5625 198.343C70.0069 203.161 67.0659 208.415 64.8188 213.967L50.332 249.774C46.4657 259.324 47.4505 270.15 52.9623 278.854L71.5269 308.145C76.5167 316.016 79.9402 324.78 81.6188 333.953L84.7515 351.123" stroke="#333333" stroke-width="6" stroke-linecap="round" stroke-linejoin="round"/>
<path d="M219.422 148.113H243.538" stroke="#333333" stroke-width="6" stroke-miterlimit="10" stroke-linecap="round"/>
<path d="M262.875 148.113H287.156" stroke="#333333" stroke-width="6" stroke-miterlimit="10" stroke-linecap="round"/>
<path d="M219.328 180.18H256.16" stroke="#333333" stroke-width="6" stroke-miterlimit="10" stroke-linecap="round"/>
<path d="M271.969 180.18H309.27" stroke="#333333" stroke-width="6" stroke-miterlimit="10" stroke-linecap="round"/>
<path d="M219.328 193.113H234.449" stroke="#333333" stroke-width="6" stroke-miterlimit="10" stroke-linecap="round"/>
<path d="M250.031 193.113H309.168" stroke="#333333" stroke-width="6" stroke-miterlimit="10" stroke-linecap="round"/>
</svg>
