<svg width="800" height="121" viewBox="0 0 800 121" fill="none" xmlns="http://www.w3.org/2000/svg">
<path d="M155.968 80.7466V80.5132C155.968 78.5266 154.894 77.4666 152.868 77.4666H145.641L128.181 27.4866C127.588 25.8466 126.514 25.0266 124.721 25.0266H116.374C114.588 25.0266 113.514 25.8466 112.914 27.4866L95.4543 77.4666H73.6743C71.9076 77.4666 70.4809 76.0599 70.4809 74.3333V6.17999C70.4809 2.76666 67.6609 0 64.1876 0H64.0209C60.5409 0 57.7276 2.76666 57.7276 6.17999V49.2733C53.2209 45.92 47.0676 42.4066 38.7076 38.8866L0.0475173 22.64C0.0475173 22.64 -3.79916 61.4733 57.7276 70.2133V77.6533C53.4142 76.9999 48.4609 76.5799 42.8009 76.5333L10.0209 76.2533C10.0209 76.2533 34.8275 110.4 84.4943 89.4332C84.4943 89.4332 82.5809 86.7266 77.2676 83.7866H93.2476L89.3543 94.9399C84.6676 94.3599 77.4743 95.5666 67.1076 102.32L45.4476 116.427C45.4476 116.427 65.8942 129.947 87.7609 108.8C87.9143 108.813 88.0743 108.827 88.2409 108.827H94.0809C95.9876 108.827 97.0609 108.007 97.6609 106.367L104.934 83.8999H135.814L143.088 106.367C143.681 108 144.761 108.827 146.668 108.827H152.868C155.134 108.827 156.088 107.42 155.374 105.313L147.854 83.7932H152.868C154.894 83.7932 155.968 82.7399 155.968 80.7466ZM120.434 36.38L133.834 77.4666H107.028L120.428 36.38H120.434Z" fill="#425267"/>
<path d="M602.927 25.8C601.8 24.7067 599.98 24.16 597.526 24.1933L589.12 24.28C589.833 22.92 589.446 23.5467 589.98 22.2933C590.166 21.8067 590.26 21.3733 590.26 21C590.26 19.08 588.52 17.9333 586.833 17.9333C585.42 17.9333 584.226 18.74 583.653 20.08C581.093 26.0333 576.46 32.52 571.846 36.6133C570.946 37.4467 570.453 38.4 570.453 39.3067C570.453 41 571.926 42.3733 573.726 42.3733C574.7 42.3733 575.58 42.02 576.34 41.3267C579.1 38.9 582.866 33.8533 585.34 30.32L596.153 30.2267C596.98 30.2267 596.98 30.4067 596.98 30.5067C596.98 30.6467 596.94 30.8333 596.866 31C596.866 31.0133 596.867 31.02 596.853 31.0333C593.767 40.4667 586.12 50.2533 576.64 55.7266C575.4 56.4333 574.66 57.58 574.66 58.78C574.66 60.58 576.153 62.04 577.986 62.04C578.666 62.04 579.28 61.8733 579.86 61.54C590.733 55.6133 600.3 43.3267 603.753 31.8733C604.06 30.9067 604.22 29.9867 604.22 29.1533C604.22 27.7667 603.787 26.6333 602.92 25.8H602.927Z" fill="#425267"/>
<path d="M210.061 19.8334C208.368 19.8334 206.541 20.7667 206.541 22.8V36.8334C206.541 46.5667 203.281 52.1067 195.294 55.96C193.954 56.6133 193.188 57.7 193.188 58.9267C193.188 60.7467 194.754 62.2867 196.614 62.2867C197.108 62.2867 197.648 62.1467 198.314 61.8467C208.528 57.0667 213.494 49.0133 213.494 37.22V22.8C213.494 20.8467 211.774 19.8334 210.068 19.8334H210.061Z" fill="#425267"/>
<path d="M194.494 42.7133V23.6333C194.494 21.62 192.747 20.5667 191.02 20.5667C189.294 20.5667 187.547 21.62 187.547 23.6333V42.7133C187.547 44.6933 189.294 45.7333 191.02 45.7333C192.747 45.7333 194.494 44.6933 194.494 42.7133Z" fill="#425267"/>
<path d="M272.959 47.4267C272.959 47.4267 272.959 47.4267 272.952 47.42L251.086 30.7667C249.686 29.7 248.239 29.16 246.766 29.16C245.139 29.16 243.572 29.86 242.112 31.2467L231.672 41.2534C230.939 41.9734 230.539 42.8867 230.539 43.84C230.539 45.56 232.032 46.96 233.866 46.96C234.826 46.96 235.799 46.5267 236.599 45.7467L245.559 36.9C246.192 36.2267 246.552 36.14 246.819 36.14C247.199 36.14 247.639 36.3534 248.179 36.8067L268.312 52.9267C269.152 53.6067 270.099 53.9667 271.052 53.9667C273.026 53.9667 274.626 52.4133 274.626 50.5133C274.626 49.3867 274.046 48.3267 272.959 47.46V47.4467V47.4267Z" fill="#425267"/>
<path d="M334.427 55.5867L334.12 55.4C332.693 54.54 331.347 53.7333 330.08 52.7533C326.647 50.1667 323.74 47.1333 321.433 43.74C319.7 41.2067 318.3 38.5267 317.18 35.58H332.54C334.413 35.58 335.273 33.9867 335.273 32.5134C335.273 31.04 334.333 29.4934 332.54 29.4934H316.22C316.453 26.5334 316.573 23.3067 316.573 19.8867C316.573 17.9134 314.847 17.0134 313.247 17.0134C311.647 17.0134 309.92 18 309.92 19.8867C309.92 23.84 309.827 26.9134 309.613 29.4934H294.693C292.9 29.4934 291.96 31.0134 291.96 32.5134C291.96 34.0133 292.82 35.58 294.693 35.58H308.887C307.96 40.6333 306.367 43.6133 304.273 46.5C301.5 50.3467 297.373 53.7533 292.627 56.1067C291.433 56.72 290.727 57.8067 290.727 59.02C290.727 60.6 291.933 62.2333 293.953 62.2333C294.56 62.2333 295.167 62.0867 295.76 61.7933C300.907 59.2867 306.067 54.9267 309.547 50.1333C311.38 47.64 312.76 45.0533 313.833 42.08C317.433 50.2133 323.66 57.22 331.1 61.4466C331.713 61.78 332.347 61.9466 332.973 61.9466C334.807 61.9466 336.347 60.4067 336.347 58.5867C336.347 57.3867 335.647 56.2933 334.42 55.5867H334.413H334.427Z" fill="#425267"/>
<path d="M359.783 29.08H380.856C382.616 29.08 383.536 27.5134 383.536 25.96C383.536 24.4067 382.616 22.84 380.856 22.84H359.783C357.976 22.84 357.156 24.4534 357.156 25.96C357.156 27.4667 357.976 29.08 359.783 29.08Z" fill="#425267"/>
<path d="M387.656 34.9H352.283C350.736 34.9 349.656 36.16 349.656 37.9667C349.656 39.4934 350.563 41.0334 352.283 41.0334H366.91C366.136 47.8 363.396 52.0867 357.55 55.7467C356.13 56.6333 355.83 57.76 355.83 58.5467C355.83 60.3667 357.356 61.9067 359.156 61.9067C359.723 61.9067 360.303 61.7467 360.95 61.4C368.523 56.9133 372.796 50.0667 373.663 41.04H387.65C389.41 41.04 390.33 39.4934 390.33 37.9734C390.33 36.4534 389.41 34.9067 387.65 34.9067L387.656 34.9Z" fill="#425267"/>
<path d="M426.048 37.2866C427.968 37.2133 429.648 35.3867 429.575 33.4533C429.535 32.5133 429.155 31.7067 428.455 31.0667C426.221 28.9067 423.528 26.8267 420.855 25.2C420.075 24.7533 419.335 24.5467 418.575 24.5733C416.621 24.6467 414.968 26.3267 415.041 28.1667C415.068 28.8667 415.348 29.88 416.528 30.6867C418.708 32.2133 421.095 34.14 423.435 36.2667C424.408 37.1533 425.401 37.3133 426.055 37.2866H426.048Z" fill="#425267"/>
<path d="M448.61 28.4266C447.35 28.4266 446.27 29.0666 445.643 30.1866C439.977 40.1 429.643 48.6066 418.017 52.9266C416.577 53.4333 415.75 54.54 415.75 55.9666C415.75 57.6266 417.077 59.4199 419.223 59.4199C419.777 59.4199 420.263 59.3333 420.737 59.1466C433.797 54.2866 444.75 45.14 451.57 33.38C451.943 32.7066 452.13 32.12 452.13 31.5866C452.13 29.6333 450.297 28.42 448.61 28.42V28.4266Z" fill="#425267"/>
<path d="M523.698 22.1134C521.971 22.1134 520.225 23.1534 520.225 25.1334V30.4267C520.225 41.6 517.978 47.74 511.938 53.0667C510.818 54.04 510.578 55.0733 510.578 55.7667C510.578 57.56 512.145 59.08 514.005 59.08C514.938 59.08 515.771 58.7533 516.558 58.0867C523.831 51.9867 527.071 43.5067 527.071 30.6133V25.1267C527.071 23.0534 525.325 22.1067 523.698 22.1067V22.1134Z" fill="#425267"/>
<path d="M552.894 41.74C551.801 41.74 550.794 42.2733 550.061 43.26C547.827 46.3733 544.247 49.2333 540.947 51.0066C540.561 51.2 540.301 51.2933 540.181 51.2933C540.134 51.2933 539.994 51.2933 539.994 50.6733V23.92C539.994 21.88 538.221 20.9467 536.567 20.9467C534.914 20.9467 533.141 21.9667 533.141 23.92V52.3733C533.141 56.0666 535.427 58.5466 538.841 58.5466C540.221 58.5466 541.727 58.44 543.334 57.62C548.141 55.1133 552.507 51.28 555.634 46.8266C556.081 46.1733 556.314 45.4866 556.314 44.8533C556.314 42.9866 554.547 41.7333 552.887 41.7333L552.894 41.74Z" fill="#425267"/>
<path d="M643.819 19.8334C642.125 19.8334 640.299 20.7667 640.299 22.8V36.8334C640.299 46.5667 637.039 52.1067 629.052 55.96C627.712 56.6133 626.945 57.7 626.945 58.9267C626.945 60.7467 628.512 62.2867 630.372 62.2867C630.865 62.2867 631.405 62.1467 632.072 61.8467C642.285 57.0667 647.252 49.0133 647.252 37.22V22.8C647.252 20.8467 645.532 19.8334 643.825 19.8334H643.819Z" fill="#425267"/>
<path d="M628.237 42.7133V23.6333C628.237 21.62 626.49 20.5667 624.77 20.5667C623.05 20.5667 621.297 21.62 621.297 23.6333V42.7133C621.297 44.6933 623.044 45.7333 624.77 45.7333C626.497 45.7333 628.237 44.6933 628.237 42.7133Z" fill="#425267"/>
<path d="M671.711 32.4734H696.938C699.025 32.4734 700.111 30.8334 700.111 29.2134C700.111 27.5934 699.118 25.9534 696.938 25.9534H671.711C669.531 25.9534 668.531 27.6467 668.531 29.2134C668.531 30.78 669.618 32.4734 671.711 32.4734Z" fill="#425267"/>
<path d="M702.379 48.6266H666.266C664.086 48.6266 663.086 50.32 663.086 51.8866C663.086 53.4533 664.173 55.1466 666.266 55.1466H702.379C704.466 55.1466 705.553 53.5066 705.553 51.8866C705.553 50.2666 704.559 48.6266 702.379 48.6266Z" fill="#425267"/>
<path d="M749.55 33.8267C748.083 33.8267 747.023 34.4933 746.657 35.6533C743.737 45.0267 737.897 51.92 729.317 56.1533C728.163 56.7067 727.523 57.5733 727.523 58.6C727.523 60.0733 728.903 61.3133 730.537 61.3133C731.03 61.3133 731.523 61.1933 732.15 60.9133C741.757 56.3733 749.67 47.2067 752.797 36.9667L752.823 36.8667C752.863 36.68 752.903 36.5133 752.903 36.3267C752.903 34.76 751.197 33.82 749.543 33.82L749.55 33.8267Z" fill="#425267"/>
<path d="M797.45 25.8C796.323 24.7067 794.503 24.16 792.05 24.1933L783.643 24.28C784.357 22.92 783.97 23.5467 784.503 22.2933C784.69 21.8067 784.783 21.3733 784.783 21C784.783 19.08 783.043 17.9333 781.357 17.9333C779.943 17.9333 778.75 18.74 778.177 20.08C775.617 26.0333 770.983 32.52 766.37 36.6133C765.47 37.4467 764.977 38.4 764.977 39.3067C764.977 41 766.443 42.3733 768.25 42.3733C769.223 42.3733 770.103 42.02 770.863 41.3267C773.623 38.9 777.39 33.8533 779.857 30.32L790.67 30.2267C791.497 30.2267 791.497 30.4067 791.497 30.5067C791.497 30.6467 791.457 30.8333 791.383 31C791.383 31.0133 791.377 31.02 791.37 31.0333C788.283 40.4667 780.637 50.2533 771.157 55.7266C769.917 56.4333 769.177 57.58 769.177 58.78C769.177 60.58 770.67 62.04 772.503 62.04C773.183 62.04 773.797 61.8733 774.377 61.54C785.25 55.6133 794.817 43.3267 798.27 31.8733C798.577 30.9067 798.737 29.9867 798.737 29.1533C798.737 27.7667 798.303 26.6333 797.437 25.8H797.45Z" fill="#425267"/>
<path d="M261.511 32.6267C263.784 32.6267 265.631 30.8134 265.631 28.5867C265.631 26.36 263.784 24.5467 261.511 24.5467C259.237 24.5467 257.391 26.36 257.391 28.5867C257.391 30.8134 259.237 32.6267 261.511 32.6267Z" fill="#425267"/>
<path d="M272.073 24.54C269.8 24.54 267.953 26.3534 267.953 28.58C267.953 30.8067 269.8 32.62 272.073 32.62C274.346 32.62 276.193 30.8067 276.193 28.58C276.193 26.3534 274.346 24.54 272.073 24.54Z" fill="#425267"/>
<path d="M722.925 33.8267C720.651 33.8267 718.805 35.64 718.805 37.8667C718.805 40.0933 720.651 41.9067 722.925 41.9067C725.198 41.9067 727.038 40.0933 727.038 37.8667C727.038 35.64 725.191 33.8267 722.925 33.8267Z" fill="#425267"/>
<path d="M734.425 41.9133C736.698 41.9133 738.545 40.1 738.545 37.8733C738.545 35.6466 736.698 33.8333 734.425 33.8333C732.151 33.8333 730.305 35.6466 730.305 37.8733C730.305 40.1 732.151 41.9133 734.425 41.9133Z" fill="#425267"/>
<path d="M387.104 20.18C387.717 20.5 388.384 20.6534 389.037 20.6534C390.51 20.6534 391.937 19.88 392.677 18.5134C393.75 16.5467 392.984 14.0934 390.984 13.04C390.017 12.5334 388.904 12.4267 387.85 12.74C386.797 13.0534 385.93 13.7534 385.417 14.7067C384.897 15.66 384.79 16.7534 385.11 17.7867C385.43 18.82 386.144 19.6734 387.11 20.18H387.104Z" fill="#425267"/>
<path d="M397.958 21.4667C395.951 20.4133 393.451 21.16 392.384 23.1333C391.311 25.1 392.078 27.5533 394.078 28.6066C394.684 28.9266 395.344 29.08 396.011 29.08C396.411 29.08 396.818 29.02 397.218 28.9066C398.271 28.5933 399.138 27.8933 399.651 26.94C400.171 25.9867 400.278 24.8933 399.958 23.86C399.638 22.8267 398.924 21.9733 397.958 21.4667Z" fill="#425267"/>
<path d="M498.209 25.8C497.082 24.7067 495.269 24.16 492.816 24.1933L484.409 24.28C485.122 22.92 484.729 23.5467 485.269 22.2933C485.456 21.8067 485.549 21.3733 485.549 21C485.549 19.08 483.809 17.9333 482.122 17.9333C480.709 17.9333 479.516 18.74 478.942 20.08C476.376 26.0333 471.749 32.52 467.136 36.6133C466.236 37.4467 465.742 38.4 465.742 39.3067C465.742 41 467.216 42.3733 469.016 42.3733C469.989 42.3733 470.869 42.02 471.629 41.3267C474.389 38.9 478.156 33.8533 480.629 30.32L491.442 30.2267C492.269 30.2267 492.269 30.4067 492.269 30.5067C492.269 30.6467 492.229 30.8333 492.156 31C492.156 31.0133 492.149 31.02 492.142 31.0333C490.889 34.8533 488.896 38.7267 486.336 42.3533C485.296 41.56 483.149 40.0733 482.082 39.4C481.456 38.9933 480.782 38.78 480.069 38.78C478.322 38.78 476.842 40.1867 476.842 41.8467C476.842 42.8533 477.329 43.7067 478.302 44.3933C479.262 45.02 481.336 46.4933 482.336 47.2867C481.576 48.1133 480.789 48.9066 479.969 49.68L477.382 51.9466C475.649 53.3533 473.829 54.6266 471.929 55.72C470.689 56.4266 469.949 57.5733 469.949 58.7733C469.949 60.5733 471.442 62.0333 473.276 62.0333C473.956 62.0333 474.569 61.8666 475.149 61.5333C486.022 55.6066 495.589 43.32 499.042 31.8667C499.349 30.9 499.509 29.98 499.509 29.1467C499.509 27.76 499.076 26.6267 498.209 25.7933V25.8Z" fill="#425267"/>
<path d="M189.639 108.693C188.279 108.693 187.539 107.967 187.539 106.633V87.4933C187.539 86.1599 188.279 85.4333 189.639 85.4333H190.079C191.439 85.4333 192.179 86.1599 192.179 87.4933V104.32H197.906C199.266 104.32 200.006 105.047 200.006 106.38V106.627C200.006 107.96 199.266 108.687 197.906 108.687H189.646L189.639 108.693Z" fill="#425267"/>
<path d="M207.444 108.693C206.084 108.693 205.344 107.967 205.344 106.633V87.4933C205.344 86.1599 206.084 85.4333 207.444 85.4333H207.864C209.224 85.4333 209.964 86.1599 209.964 87.4933V106.633C209.964 107.967 209.224 108.693 207.864 108.693H207.444Z" fill="#425267"/>
<path d="M218.498 108.693C217.138 108.693 216.398 107.967 216.398 106.633V87.4933C216.398 86.1599 217.138 85.4333 218.498 85.4333H223.618C228.285 85.4333 231.465 87.4933 231.465 91.7799V92.1133C231.465 94.6199 230.372 96.1666 228.492 97.0066C230.492 97.8666 231.685 99.4599 231.685 102.033V102.313C231.685 106.613 228.525 108.693 223.858 108.693H218.498ZM221.012 95.2733H223.865C225.478 95.2733 226.838 94.6599 226.838 92.7866V92.2599C226.838 90.2333 225.292 89.8066 223.445 89.8066H221.012V95.2799V95.2733ZM221.012 104.373H223.685C225.465 104.373 227.078 103.893 227.078 101.8V101.293C227.078 99.3466 225.585 98.8066 223.858 98.8066H221.018V104.38L221.012 104.373Z" fill="#425267"/>
<path d="M239.412 108.693C238.052 108.693 237.312 107.967 237.312 106.633V87.4933C237.312 86.1599 238.046 85.4333 239.412 85.4333H248.466C249.826 85.4333 250.566 86.1599 250.566 87.4933V87.7533C250.566 89.0866 249.833 89.8133 248.466 89.8133H241.932V95.0866H246.233C247.593 95.0866 248.333 95.7799 248.333 97.0666C248.333 98.3533 247.593 99.0599 246.233 99.0599H241.932V104.32H248.466C249.826 104.32 250.566 105.047 250.566 106.38V106.627C250.566 107.96 249.833 108.687 248.466 108.687H239.412V108.693Z" fill="#425267"/>
<path d="M258.233 108.693C256.873 108.693 256.133 107.967 256.133 106.633V87.4933C256.133 86.1599 256.866 85.4333 258.233 85.4333H263.626C268.359 85.4333 271.533 88.4333 271.533 93.8533V94.4933C271.533 97.9066 270.093 100.22 267.793 101.393L270.606 106.247C271.326 107.647 270.793 108.687 269.313 108.687H268.473C267.299 108.687 266.506 108.193 266.039 107.12L263.626 102.687H260.766V106.627C260.766 107.96 260.033 108.687 258.666 108.687H258.226L258.233 108.693ZM260.766 98.3732H263.066C265.066 98.3732 266.946 97.5132 266.946 94.4466V93.7866C266.946 90.5733 265.133 89.7999 263.066 89.7999H260.766V98.3732Z" fill="#425267"/>
<path d="M277.449 108.693C275.956 108.693 275.263 107.82 275.669 106.387L281.429 87.1866C281.769 85.9999 282.556 85.4399 283.783 85.4399H285.123C286.349 85.4399 287.136 85.9799 287.469 87.1866L293.129 106.387C293.536 107.833 292.843 108.693 291.383 108.693H290.929C289.683 108.693 288.923 108.12 288.609 106.913L287.803 104.113H280.969L280.163 106.933C279.849 108.14 279.069 108.7 277.829 108.7H277.443L277.449 108.693ZM281.949 100.187H286.849L284.449 90.6133L281.949 100.187Z" fill="#425267"/>
<path d="M300.436 108.693C299.076 108.693 298.336 107.967 298.336 106.633V87.4933C298.336 86.1599 299.069 85.4333 300.436 85.4333H300.876C302.236 85.4333 302.976 86.1599 302.976 87.4933V104.32H308.696C310.056 104.32 310.796 105.047 310.796 106.38V106.627C310.796 107.96 310.056 108.687 308.696 108.687H300.436V108.693Z" fill="#425267"/>
<path d="M316.582 108.693C315.089 108.693 314.396 107.82 314.802 106.387L320.562 87.1866C320.902 85.9999 321.689 85.4399 322.909 85.4399H324.249C325.476 85.4399 326.262 85.9799 326.602 87.1866L332.262 106.387C332.669 107.833 331.976 108.693 330.516 108.693H330.062C328.816 108.693 328.056 108.12 327.749 106.913L326.942 104.113H320.109L319.302 106.933C318.989 108.14 318.209 108.7 316.969 108.7H316.582V108.693ZM321.082 100.187H325.989L323.582 90.6133L321.082 100.187Z" fill="#425267"/>
<path d="M339.131 108.693C337.771 108.693 337.031 107.967 337.031 106.633V87.4933C337.031 86.1599 337.771 85.4333 339.131 85.4333H344.525C349.258 85.4333 352.431 88.4333 352.431 93.8533V94.4933C352.431 97.9066 350.991 100.22 348.691 101.393L351.505 106.247C352.225 107.647 351.691 108.687 350.211 108.687H349.371C348.198 108.687 347.405 108.193 346.938 107.12L344.525 102.687H341.665V106.627C341.665 107.96 340.931 108.687 339.565 108.687H339.125L339.131 108.693ZM341.665 98.3732H343.965C345.965 98.3732 347.845 97.5132 347.845 94.4466V93.7866C347.845 90.5733 346.031 89.7999 343.965 89.7999H341.665V98.3732Z" fill="#425267"/>
<path d="M363.362 108.693C362.002 108.693 361.262 107.967 361.262 106.633V89.8199H358.475C357.115 89.8199 356.375 89.0933 356.375 87.7599V87.4999C356.375 86.1666 357.108 85.4399 358.475 85.4399H368.722C370.082 85.4399 370.822 86.1666 370.822 87.4999V87.7599C370.822 89.0933 370.195 89.8199 369.055 89.8199H365.915V106.633C365.915 107.967 365.182 108.693 363.815 108.693H363.355H363.362Z" fill="#425267"/>
<path d="M381.966 108.693C377.92 108.693 374.886 106.32 374.193 102.827C373.839 101.36 374.633 100.487 376.106 100.487H376.246C377.573 100.487 378.073 101.08 378.433 101.907C378.953 103.453 380.146 104.427 382.106 104.427C383.953 104.427 385.313 103.473 385.313 101.76C385.313 99.8333 383.32 99.3333 381.046 98.7533C377.98 97.9599 374.359 96.9999 374.359 92.2666C374.359 88.0466 377.313 85.4399 382.02 85.4399C385.846 85.4399 388.686 87.5133 389.493 91.0599C389.88 92.4599 389.12 93.3999 387.6 93.3999H387.466C386.313 93.3999 385.806 92.8399 385.42 92.0599C384.88 90.6733 383.74 89.6933 381.953 89.6933C380.166 89.6933 378.946 90.6666 378.946 92.2666C378.946 94.2533 380.953 94.7266 383.246 95.2733C386.32 96.0133 389.946 96.8866 389.946 101.647C389.946 106 386.806 108.7 381.973 108.7L381.966 108.693Z" fill="#425267"/>
<path d="M409.866 108.307C408.506 108.307 407.766 107.58 407.766 106.247V87.1066C407.766 85.7733 408.506 85.0466 409.866 85.0466H415.539C420.206 85.0466 423.466 88.0666 423.466 93.7133V99.6799C423.466 105.3 420.206 108.3 415.539 108.3H409.866V108.307ZM412.399 103.987H414.986C416.999 103.987 418.866 103.093 418.866 99.2733V94.0999C418.866 90.3066 417.072 89.4199 414.986 89.4199H412.399V103.993V103.987Z" fill="#425267"/>
<path d="M431.569 108.307C430.209 108.307 429.469 107.58 429.469 106.247V87.1066C429.469 85.7733 430.209 85.0466 431.569 85.0466H440.615C441.975 85.0466 442.715 85.7733 442.715 87.1066V87.3666C442.715 88.6999 441.975 89.4266 440.615 89.4266H434.082V94.6999H438.382C439.742 94.6999 440.482 95.3933 440.482 96.6799C440.482 97.9666 439.749 98.6732 438.382 98.6732H434.082V103.933H440.615C441.975 103.933 442.715 104.66 442.715 105.993V106.24C442.715 107.573 441.975 108.3 440.615 108.3H431.569V108.307Z" fill="#425267"/>
<path d="M450.373 108.307C449.013 108.307 448.273 107.58 448.273 106.247V87.1066C448.273 85.7733 449.007 85.0466 450.373 85.0466H450.893C452.067 85.0466 452.887 85.5333 453.36 86.5799L459.56 98.9066V87.1066C459.56 85.7733 460.293 85.0466 461.66 85.0466H462.113C463.473 85.0466 464.213 85.7733 464.213 87.1066V106.247C464.213 107.58 463.48 108.307 462.113 108.307H461.58C460.407 108.307 459.587 107.82 459.113 106.773L452.92 94.5133V106.247C452.92 107.58 452.18 108.307 450.82 108.307H450.38H450.373Z" fill="#425267"/>
<path d="M476.494 108.307C475.134 108.307 474.394 107.58 474.394 106.247V89.4333H471.608C470.248 89.4333 469.508 88.7066 469.508 87.3733V87.1133C469.508 85.7799 470.241 85.0533 471.608 85.0533H481.855C483.215 85.0533 483.954 85.7799 483.954 87.1133V87.3733C483.954 88.7066 483.328 89.4333 482.188 89.4333H479.048V106.247C479.048 107.58 478.314 108.307 476.948 108.307H476.488H476.494Z" fill="#425267"/>
<path d="M487.598 108.307C486.098 108.307 485.412 107.433 485.818 106L491.578 86.7999C491.918 85.6133 492.705 85.0533 493.925 85.0533H495.272C496.498 85.0533 497.285 85.5933 497.618 86.7999L503.278 106C503.685 107.447 502.992 108.307 501.532 108.307H501.078C499.832 108.307 499.072 107.733 498.765 106.527L497.958 103.727H491.125L490.318 106.547C490.005 107.753 489.225 108.313 487.985 108.313H487.598V108.307ZM492.098 99.7999H496.998L494.598 90.2266L492.098 99.7999Z" fill="#425267"/>
<path d="M510.17 108.307C508.81 108.307 508.07 107.58 508.07 106.247V87.1066C508.07 85.7733 508.804 85.0466 510.17 85.0466H510.61C511.97 85.0466 512.71 85.7733 512.71 87.1066V103.933H518.437C519.797 103.933 520.537 104.66 520.537 105.993V106.24C520.537 107.573 519.797 108.3 518.437 108.3H510.177L510.17 108.307Z" fill="#425267"/>
<path d="M542.458 108.3C537.771 108.3 534.531 104.987 534.531 100.24V93.0733C534.531 88.3466 537.771 85.0466 542.458 85.0466C547.145 85.0466 549.845 87.9599 550.198 91.7666C550.318 93.1199 549.645 93.8599 548.265 93.8599H547.811C546.265 93.8599 545.911 93.1333 545.718 92.2333C545.398 90.7066 544.645 89.4066 542.451 89.4066C540.871 89.4066 539.158 90.2466 539.158 92.9199V100.387C539.158 102.993 540.685 103.933 542.451 103.933C544.745 103.933 545.498 102.48 545.745 100.947C545.918 99.9933 546.258 99.2266 547.805 99.2266H548.245C549.685 99.2266 550.311 100.133 550.191 101.487C549.838 105.36 547.018 108.313 542.451 108.313L542.458 108.3Z" fill="#425267"/>
<path d="M558.084 108.307C556.724 108.307 555.984 107.58 555.984 106.247V87.1066C555.984 85.7733 556.718 85.0466 558.084 85.0466H558.524C559.884 85.0466 560.624 85.7733 560.624 87.1066V103.933H566.351C567.711 103.933 568.451 104.66 568.451 105.993V106.24C568.451 107.573 567.711 108.3 566.351 108.3H558.084V108.307Z" fill="#425267"/>
<path d="M575.741 108.307C574.381 108.307 573.641 107.58 573.641 106.247V87.1066C573.641 85.7733 574.374 85.0466 575.741 85.0466H576.161C577.521 85.0466 578.261 85.7733 578.261 87.1066V106.247C578.261 107.58 577.527 108.307 576.161 108.307H575.741Z" fill="#425267"/>
<path d="M586.795 108.307C585.435 108.307 584.695 107.58 584.695 106.247V87.1066C584.695 85.7733 585.435 85.0466 586.795 85.0466H587.315C588.489 85.0466 589.309 85.5333 589.782 86.5799L595.982 98.9066V87.1066C595.982 85.7733 596.715 85.0466 598.082 85.0466H598.535C599.895 85.0466 600.635 85.7733 600.635 87.1066V106.247C600.635 107.58 599.895 108.307 598.535 108.307H598.002C596.829 108.307 596.009 107.82 595.535 106.773L589.342 94.5133V106.247C589.342 107.58 588.602 108.307 587.242 108.307H586.802H586.795Z" fill="#425267"/>
<path d="M609.545 108.307C608.185 108.307 607.445 107.58 607.445 106.247V87.1066C607.445 85.7733 608.185 85.0466 609.545 85.0466H609.965C611.325 85.0466 612.065 85.7733 612.065 87.1066V106.247C612.065 107.58 611.332 108.307 609.965 108.307H609.545Z" fill="#425267"/>
<path d="M625.817 108.3C621.131 108.3 617.891 104.987 617.891 100.24V93.0733C617.891 88.3466 621.131 85.0466 625.817 85.0466C630.504 85.0466 633.204 87.9599 633.557 91.7666C633.677 93.1199 633.004 93.8599 631.624 93.8599H631.171C629.624 93.8599 629.271 93.1333 629.077 92.2333C628.757 90.7066 628.004 89.4066 625.811 89.4066C624.231 89.4066 622.517 90.2466 622.517 92.9199V100.387C622.517 102.993 624.051 103.933 625.811 103.933C628.104 103.933 628.857 102.48 629.111 100.947C629.284 99.9933 629.624 99.2266 631.171 99.2266H631.611C633.051 99.2266 633.677 100.133 633.557 101.487C633.204 105.36 630.384 108.313 625.817 108.313V108.3Z" fill="#425267"/>
<path d="M684.383 104.753C683.509 103.68 682.716 102.16 682.016 100.187C681.316 98.2132 680.803 95.6199 680.489 92.3999H669.336C669.049 92.3999 668.823 92.3066 668.656 92.1266C668.489 91.9466 668.409 91.7266 668.409 91.4666C668.409 91.2066 668.489 90.9932 668.656 90.8199C668.823 90.6466 669.049 90.5599 669.336 90.5599H680.329C680.223 89.1532 680.156 87.6332 680.123 86.0066C680.123 85.7066 680.223 85.4533 680.429 85.2599C680.636 85.0666 680.876 84.9666 681.169 84.9666C681.463 84.9666 681.703 85.0532 681.903 85.2266C682.103 85.3999 682.209 85.6599 682.209 86.0066C682.209 87.6399 682.256 89.1599 682.343 90.5599H687.989C688.263 90.5599 688.483 90.6466 688.649 90.8199C688.816 90.9932 688.896 91.2066 688.896 91.4666C688.896 91.7266 688.816 91.9399 688.649 92.1266C688.483 92.3066 688.263 92.3999 687.989 92.3999H682.503C682.776 95.1666 683.209 97.4466 683.809 99.2332C684.403 101.027 685.089 102.38 685.863 103.3C686.269 103.767 686.616 103.733 686.903 103.187C687.023 102.927 687.149 102.653 687.276 102.36C687.403 102.067 687.523 101.8 687.629 101.553C687.736 101.28 687.909 101.093 688.149 100.987C688.389 100.88 688.643 100.88 688.896 100.987C689.183 101.093 689.376 101.267 689.476 101.507C689.576 101.747 689.583 102 689.509 102.253C689.389 102.633 689.243 102.993 689.076 103.333C688.909 103.673 688.743 104.02 688.576 104.367C688.063 105.467 687.423 106.033 686.649 106.053C685.876 106.073 685.123 105.64 684.383 104.747V104.753ZM669.669 105.047C669.336 105.107 669.063 105.06 668.843 104.9C668.623 104.74 668.483 104.52 668.423 104.233C668.376 103.96 668.429 103.713 668.583 103.5C668.736 103.28 668.969 103.147 669.283 103.1C669.736 103.053 670.229 102.987 670.756 102.893V95.9799C670.756 95.6799 670.849 95.4332 671.036 95.2532C671.223 95.0732 671.456 94.9799 671.729 94.9799C672.003 94.9799 672.229 95.0732 672.423 95.2532C672.609 95.4332 672.703 95.6732 672.703 95.9799V102.6C673.023 102.54 673.343 102.487 673.676 102.44C674.009 102.393 674.343 102.34 674.676 102.28V94.3266C674.676 94.0266 674.776 93.7799 674.969 93.5999C675.163 93.4199 675.403 93.3266 675.669 93.3266C675.936 93.3266 676.176 93.4199 676.369 93.5999C676.563 93.7799 676.663 94.0199 676.663 94.3266V96.4799H679.383C679.669 96.4799 679.896 96.5732 680.063 96.7599C680.229 96.9466 680.309 97.1732 680.309 97.4266C680.309 97.6799 680.229 97.8999 680.063 98.0866C679.896 98.2666 679.669 98.3599 679.383 98.3599H676.663V101.92C677.343 101.8 677.989 101.68 678.603 101.567C679.216 101.453 679.756 101.353 680.223 101.26C680.483 101.2 680.703 101.233 680.889 101.36C681.076 101.487 681.196 101.68 681.243 101.94C681.289 102.18 681.249 102.4 681.129 102.6C681.009 102.793 680.829 102.927 680.583 102.987C679.936 103.14 679.136 103.307 678.203 103.5C677.269 103.693 676.269 103.88 675.223 104.08C674.169 104.273 673.163 104.46 672.183 104.633C671.209 104.807 670.363 104.947 669.656 105.053L669.669 105.047ZM671.483 88.4532C671.209 88.4532 670.989 88.3599 670.823 88.1799C670.656 87.9999 670.576 87.7866 670.576 87.5466C670.576 87.2866 670.656 87.0733 670.823 86.8999C670.989 86.7266 671.209 86.6399 671.483 86.6399H677.556C677.829 86.6399 678.049 86.7266 678.216 86.8999C678.383 87.0733 678.463 87.2866 678.463 87.5466C678.463 87.7866 678.383 87.9999 678.216 88.1799C678.049 88.3599 677.829 88.4532 677.556 88.4532H671.483ZM687.036 89.5866C686.843 89.7666 686.603 89.8532 686.336 89.8332C686.063 89.8199 685.829 89.7132 685.636 89.5133C685.483 89.3466 685.289 89.1532 685.056 88.9332C684.823 88.7132 684.589 88.4932 684.363 88.2666C684.136 88.0399 683.943 87.8599 683.776 87.7199C683.583 87.5533 683.483 87.3399 683.496 87.0866C683.503 86.8333 683.596 86.6199 683.776 86.4532C683.969 86.2599 684.203 86.1533 684.469 86.1466C684.736 86.1399 684.969 86.2266 685.183 86.4066C685.363 86.5399 685.576 86.7266 685.829 86.9532C686.076 87.1799 686.323 87.4066 686.569 87.6332C686.809 87.8599 686.989 88.0399 687.116 88.1799C687.329 88.3733 687.423 88.6132 687.403 88.8932C687.383 89.1732 687.263 89.4066 687.049 89.5866H687.036Z" fill="#425267"/>
<path d="M692.27 105.907C692.01 105.773 691.85 105.58 691.783 105.34C691.717 105.1 691.75 104.867 691.883 104.64C692.55 103.507 693.01 102.3 693.263 101.013C693.517 99.7266 693.65 98.2532 693.65 96.5932V95.1399C693.65 94.1866 693.77 93.4532 694.003 92.9266C694.237 92.4066 694.643 92.0399 695.23 91.8266C695.81 91.6132 696.61 91.5066 697.623 91.5066H704.943C704.93 91.3866 704.923 91.2666 704.923 91.1466V90.7866C704.663 90.7732 704.443 90.6799 704.257 90.5066C704.07 90.3332 703.977 90.0999 703.977 89.8132V88.8399H700.37V89.9532C700.37 90.2399 700.27 90.4732 700.077 90.6532C699.883 90.8332 699.657 90.9266 699.397 90.9266C699.123 90.9266 698.897 90.8332 698.703 90.6532C698.517 90.4732 698.423 90.2399 698.423 89.9532V88.8399H692.983C692.77 88.8399 692.59 88.7599 692.43 88.5999C692.27 88.4399 692.19 88.2532 692.19 88.0466C692.19 87.8199 692.27 87.6266 692.43 87.4666C692.59 87.3066 692.777 87.2266 692.983 87.2266H698.423V85.9132C698.423 85.6266 698.517 85.3932 698.703 85.2132C698.89 85.0332 699.123 84.9399 699.397 84.9399C699.65 84.9399 699.877 85.0332 700.077 85.2132C700.27 85.3932 700.37 85.6266 700.37 85.9132V87.2266H703.977V85.9132C703.977 85.6266 704.077 85.3932 704.27 85.2132C704.463 85.0332 704.69 84.9399 704.95 84.9399C705.223 84.9399 705.457 85.0332 705.65 85.2132C705.843 85.3932 705.943 85.6266 705.943 85.9132V87.2266H711.837C712.063 87.2266 712.257 87.3066 712.417 87.4666C712.577 87.6266 712.657 87.8199 712.657 88.0466C712.657 88.2599 712.577 88.4399 712.417 88.5999C712.257 88.7599 712.063 88.8399 711.837 88.8399H708.937C709.07 88.8866 709.197 88.9599 709.297 89.0666C709.717 89.4599 710.09 89.8332 710.41 90.1799C710.59 90.3732 710.683 90.5999 710.683 90.8466C710.683 91.0932 710.577 91.3066 710.363 91.4732L710.317 91.5199H711.81C712.037 91.5199 712.23 91.6066 712.39 91.7799C712.55 91.9532 712.63 92.1532 712.63 92.3799C712.63 92.6066 712.55 92.8066 712.39 92.9799C712.23 93.1532 712.037 93.2399 711.81 93.2399H706.843C706.917 94.3399 707.023 95.3866 707.163 96.3799C707.303 97.3732 707.49 98.2866 707.73 99.1332C708.41 97.9399 708.957 96.6332 709.363 95.2132C709.437 94.9266 709.603 94.7332 709.863 94.6332C710.117 94.5332 710.37 94.5399 710.61 94.6466C710.85 94.7399 711.023 94.8866 711.13 95.0866C711.237 95.2932 711.243 95.5266 711.15 95.7999C710.817 96.8132 710.437 97.7799 710.003 98.6999C709.57 99.6199 709.077 100.493 708.517 101.307C708.91 102.153 709.363 102.84 709.877 103.367C710.117 103.607 710.31 103.713 710.457 103.687C710.603 103.653 710.723 103.5 710.83 103.213C711.057 102.687 711.263 102.147 711.443 101.607C711.537 101.347 711.697 101.173 711.93 101.073C712.163 100.973 712.417 100.98 712.69 101.087C712.917 101.18 713.083 101.32 713.19 101.507C713.297 101.693 713.31 101.92 713.237 102.173C713.13 102.507 712.997 102.873 712.843 103.273C712.69 103.673 712.523 104.047 712.357 104.393C711.95 105.313 711.423 105.827 710.783 105.92C710.143 106.02 709.49 105.72 708.823 105.027C708.217 104.393 707.703 103.687 707.283 102.92C706.817 103.433 706.31 103.927 705.777 104.407C705.237 104.88 704.663 105.327 704.043 105.733C703.817 105.887 703.57 105.96 703.297 105.96C703.023 105.96 702.797 105.847 702.617 105.62C702.463 105.44 702.403 105.22 702.423 104.96C702.443 104.7 702.577 104.5 702.817 104.347L702.863 104.327H700.21C698.897 104.327 697.99 104.107 697.49 103.66C696.99 103.213 696.743 102.447 696.743 101.36V97.2132C696.743 96.1266 696.99 95.3599 697.49 94.9132C697.99 94.4666 698.897 94.2466 700.21 94.2466H703.703C703.917 94.2466 704.09 94.3266 704.237 94.4932C704.377 94.6599 704.45 94.8466 704.45 95.0599C704.45 95.2532 704.377 95.4399 704.237 95.6132C704.09 95.7866 703.917 95.8732 703.703 95.8732H701.983V97.1199C702.783 97.1532 703.337 97.3199 703.65 97.6266C703.957 97.9332 704.117 98.4799 704.117 99.2466C704.117 100.013 703.963 100.573 703.65 100.88C703.343 101.18 702.783 101.347 701.983 101.38V102.693H703.89C704.163 102.693 704.377 102.82 704.523 103.08C705.263 102.433 705.903 101.76 706.45 101.06C706.057 99.9866 705.743 98.7999 705.51 97.4932C705.277 96.1866 705.11 94.7666 705.023 93.2399H697.637C697.077 93.2399 696.65 93.2866 696.343 93.3866C696.043 93.4866 695.83 93.6666 695.71 93.9399C695.59 94.2132 695.53 94.6132 695.53 95.1399V96.5199C695.53 98.2599 695.377 99.8866 695.063 101.413C694.757 102.94 694.263 104.287 693.603 105.447C693.483 105.673 693.297 105.833 693.037 105.933C692.777 106.033 692.53 106.02 692.29 105.9L692.27 105.907ZM698.523 97.1132H700.27V95.8666H700.203C699.557 95.8666 699.11 95.9466 698.877 96.1132C698.643 96.2799 698.523 96.6132 698.523 97.1132ZM698.523 99.8999H701.603C701.903 99.8999 702.097 99.8532 702.183 99.7666C702.263 99.6732 702.31 99.4999 702.31 99.2466C702.31 98.9932 702.27 98.8132 702.183 98.7266C702.103 98.6332 701.91 98.5932 701.603 98.5932H698.523V99.9066V99.8999ZM700.203 102.687H700.27V101.373H698.523C698.523 101.887 698.637 102.233 698.877 102.413C699.117 102.593 699.55 102.687 700.203 102.687ZM706.777 91.5132H709.177C709.177 91.5132 709.15 91.4866 709.13 91.4666C709.117 91.4532 709.097 91.4399 709.083 91.4199C708.963 91.2666 708.797 91.0866 708.583 90.8666C708.37 90.6466 708.183 90.4399 708.017 90.2466C707.863 90.0799 707.797 89.8866 707.803 89.6666C707.81 89.4466 707.89 89.2599 708.043 89.1132C708.177 88.9799 708.33 88.8866 708.497 88.8399H705.937V89.5866C706.163 89.5999 706.357 89.6999 706.517 89.8666C706.677 90.0399 706.757 90.2532 706.757 90.5132V90.9999C706.757 91.1732 706.763 91.3466 706.777 91.5066V91.5132Z" fill="#425267"/>
<path d="M716.393 100.287C716.133 100.133 715.973 99.9199 715.893 99.6266C715.813 99.3332 715.879 99.0666 716.073 98.8132C716.573 98.1199 717.079 97.2999 717.599 96.3666C718.119 95.4266 718.606 94.4732 719.053 93.4866C719.499 92.5066 719.859 91.5999 720.133 90.7666C720.239 90.4666 720.426 90.2466 720.699 90.1066C720.973 89.9666 721.253 89.9666 721.539 90.0866C721.813 90.1933 722.013 90.3599 722.139 90.5932C722.266 90.8266 722.279 91.0933 722.173 91.3999C721.873 92.2799 721.486 93.2332 721.019 94.2666C720.553 95.2999 720.053 96.3066 719.533 97.2799C719.013 98.2532 718.499 99.1066 718.006 99.8332C717.826 100.107 717.586 100.287 717.279 100.38C716.979 100.473 716.679 100.44 716.393 100.287ZM723.393 105.68C723.033 105.68 722.733 105.58 722.506 105.373C722.279 105.167 722.153 104.9 722.119 104.567C722.093 104.233 722.186 103.953 722.406 103.713C722.626 103.48 722.946 103.347 723.366 103.32C724.139 103.273 724.639 103.167 724.873 103C725.106 102.833 725.226 102.473 725.226 101.913V86.5933C725.226 86.2599 725.333 85.9932 725.553 85.7866C725.773 85.5799 726.026 85.4799 726.313 85.4799C726.613 85.4799 726.873 85.5799 727.093 85.7866C727.313 85.9932 727.419 86.2599 727.419 86.5933V102.14C727.419 103.407 727.119 104.313 726.526 104.86C725.926 105.407 724.886 105.673 723.386 105.673L723.393 105.68ZM736.266 100.033C735.979 100.213 735.679 100.273 735.359 100.2C735.039 100.133 734.786 99.9599 734.586 99.6932C734.099 98.9666 733.586 98.1332 733.046 97.1866C732.499 96.2399 731.986 95.2599 731.493 94.2399C730.999 93.2199 730.573 92.2266 730.213 91.2599C730.106 90.9732 730.126 90.6999 730.266 90.4332C730.406 90.1666 730.626 89.9933 730.913 89.8999C731.199 89.8066 731.473 89.8266 731.726 89.9466C731.986 90.0666 732.166 90.2532 732.273 90.5132C732.619 91.3466 733.033 92.2466 733.519 93.2132C733.999 94.1799 734.513 95.1199 735.046 96.0332C735.579 96.9466 736.086 97.7466 736.553 98.4266C736.746 98.6666 736.819 98.9532 736.759 99.2866C736.699 99.6199 736.533 99.8666 736.259 100.033H736.266Z" fill="#425267"/>
<path d="M744.789 106.02C744.516 106.02 744.289 105.927 744.096 105.74C743.909 105.553 743.816 105.313 743.816 105.027V95.6866C743.409 96.4999 742.983 97.2932 742.536 98.0532C742.089 98.8132 741.696 99.4599 741.349 99.9932C741.196 100.22 740.976 100.367 740.689 100.427C740.403 100.487 740.143 100.44 739.916 100.293C739.689 100.127 739.563 99.9199 739.543 99.6732C739.523 99.4266 739.583 99.1932 739.736 98.9799C740.036 98.5399 740.383 98.0066 740.769 97.3732C741.156 96.7399 741.543 96.0666 741.936 95.3532C742.329 94.6466 742.689 93.9599 743.016 93.2999C743.343 92.6399 743.603 92.0799 743.796 91.6132H740.736C740.496 91.6132 740.283 91.5199 740.103 91.3399C739.923 91.1599 739.829 90.9466 739.829 90.7066C739.829 90.4533 739.923 90.2332 740.103 90.0599C740.283 89.8866 740.496 89.7999 740.736 89.7999H743.816V86.1533C743.816 85.8533 743.909 85.6066 744.096 85.4266C744.283 85.2466 744.516 85.1533 744.789 85.1533C745.063 85.1533 745.296 85.2466 745.489 85.4266C745.683 85.6066 745.783 85.8466 745.783 86.1533V89.7999H748.409C748.669 89.7999 748.883 89.8866 749.056 90.0599C749.229 90.2332 749.316 90.4466 749.316 90.7066C749.316 90.9466 749.229 91.1599 749.056 91.3399C748.883 91.5199 748.669 91.6132 748.409 91.6132H745.783V93.1066C746.036 93.4266 746.363 93.8199 746.756 94.2866C747.149 94.7532 747.543 95.2133 747.936 95.6599C748.329 96.1066 748.649 96.4666 748.889 96.7399C749.069 96.9332 749.156 97.1599 749.149 97.4199C749.143 97.6799 749.029 97.8932 748.823 98.0799C748.629 98.2599 748.389 98.3399 748.109 98.3199C747.829 98.2999 747.609 98.1866 747.443 97.9932C747.229 97.7399 746.976 97.4199 746.683 97.0532C746.389 96.6866 746.089 96.3066 745.789 95.9332V105.047C745.789 105.333 745.689 105.573 745.496 105.76C745.303 105.947 745.063 106.04 744.796 106.04L744.789 106.02ZM749.889 105.453C749.529 105.587 749.196 105.62 748.903 105.553C748.609 105.487 748.389 105.293 748.256 104.973C748.123 104.673 748.123 104.387 748.256 104.113C748.389 103.84 748.636 103.647 748.983 103.527C750.149 103.12 751.303 102.607 752.449 102C753.596 101.393 754.683 100.707 755.716 99.9599C756.743 99.2132 757.636 98.4332 758.389 97.6132C758.569 97.3999 758.803 97.2866 759.089 97.2732C759.376 97.2599 759.623 97.3532 759.836 97.5666C760.049 97.7599 760.156 97.9999 760.163 98.2799C760.169 98.5599 760.076 98.8066 759.883 99.0199C759.069 99.9132 758.116 100.76 757.036 101.567C755.956 102.373 754.809 103.107 753.589 103.767C752.369 104.427 751.136 104.987 749.883 105.453H749.889ZM750.843 98.9466C750.556 99.0999 750.269 99.1399 749.983 99.0799C749.696 99.0199 749.469 98.8399 749.303 98.5332C749.149 98.2466 749.136 97.9732 749.249 97.7066C749.363 97.4399 749.569 97.2466 749.869 97.1266C750.743 96.7466 751.656 96.2666 752.603 95.6732C753.549 95.0866 754.443 94.4466 755.303 93.7666C756.156 93.0866 756.869 92.4199 757.443 91.7733C757.636 91.5599 757.883 91.4532 758.169 91.4532C758.456 91.4532 758.696 91.5599 758.896 91.7733C759.109 91.9866 759.216 92.2199 759.216 92.4733C759.216 92.7266 759.116 92.9666 758.923 93.1732C758.256 93.9132 757.483 94.6399 756.596 95.3466C755.709 96.0599 754.776 96.7132 753.796 97.3199C752.816 97.9266 751.829 98.4599 750.849 98.9266L750.843 98.9466ZM751.043 92.8732C750.743 93.0399 750.449 93.0933 750.169 93.0466C749.889 92.9933 749.663 92.8399 749.476 92.5799C749.323 92.3199 749.283 92.0599 749.343 91.7866C749.403 91.5132 749.569 91.3066 749.843 91.1532C751.049 90.4866 752.223 89.7066 753.356 88.8066C754.489 87.9066 755.429 87.0199 756.169 86.1466C756.363 85.9333 756.609 85.8266 756.909 85.8266C757.209 85.8266 757.449 85.9199 757.643 86.0999C757.856 86.2933 757.963 86.5333 757.969 86.7999C757.976 87.0666 757.889 87.3133 757.709 87.5266C756.896 88.4666 755.889 89.4066 754.709 90.3599C753.523 91.3132 752.303 92.1532 751.049 92.8732H751.043Z" fill="#425267"/>
<path d="M765.207 106.133C764.947 106.133 764.733 106.047 764.547 105.873C764.367 105.7 764.273 105.467 764.273 105.18V88.7266C764.273 87.9732 764.367 87.3866 764.553 86.9732C764.74 86.5599 765.087 86.2732 765.593 86.1132C766.1 85.9532 766.813 85.8732 767.733 85.8732C769.2 85.8732 770.153 86.1666 770.6 86.7466C771.047 87.3266 771.027 88.0866 770.547 89.0266C770.32 89.4799 770.06 89.9799 769.773 90.5199C769.487 91.0666 769.213 91.5866 768.96 92.0866C768.78 92.4332 768.693 92.6866 768.713 92.8466C768.727 93.0066 768.88 93.2332 769.167 93.5399C769.56 93.9199 769.9 94.3466 770.187 94.8199C770.473 95.2932 770.687 95.8066 770.82 96.3466C770.88 96.1666 770.993 96.0132 771.147 95.8932C771.307 95.7732 771.5 95.7132 771.727 95.7132H783.22C783.52 95.7132 783.76 95.8066 783.933 95.9999C784.107 96.1866 784.193 96.4199 784.193 96.6932C784.193 96.9466 784.107 97.1799 783.933 97.3732C783.76 97.5666 783.52 97.6666 783.22 97.6666H779.84V102.7C779.84 103.153 779.94 103.447 780.133 103.587C780.327 103.72 780.707 103.793 781.267 103.793C781.747 103.793 782.08 103.693 782.253 103.5C782.427 103.307 782.6 102.887 782.767 102.253C782.84 101.953 783 101.747 783.24 101.64C783.48 101.533 783.747 101.527 784.033 101.62C784.62 101.787 784.86 102.173 784.733 102.773C784.52 103.94 784.14 104.733 783.587 105.167C783.033 105.6 782.253 105.813 781.24 105.813C780.047 105.813 779.187 105.627 778.653 105.26C778.127 104.887 777.86 104.2 777.86 103.187V97.6799H776.207C776.087 99.7199 775.587 101.413 774.713 102.76C773.833 104.107 772.5 105.133 770.7 105.84C770.427 105.947 770.16 105.967 769.893 105.907C769.627 105.847 769.42 105.673 769.273 105.387C769.153 105.16 769.14 104.92 769.227 104.66C769.32 104.4 769.5 104.22 769.773 104.113C771.3 103.493 772.407 102.673 773.093 101.653C773.78 100.633 774.193 99.3066 774.327 97.6732H771.72C771.553 97.6732 771.4 97.6399 771.267 97.5732C771.133 97.5066 771.027 97.4199 770.947 97.3132V97.6332C770.947 98.8732 770.613 99.7999 769.947 100.42C769.28 101.04 768.407 101.36 767.32 101.373C766.653 101.373 766.287 101.087 766.207 100.513C766.133 99.8666 766.473 99.4999 767.227 99.4266C767.86 99.3532 768.307 99.1532 768.567 98.8399C768.82 98.5199 768.953 97.9732 768.953 97.1866C768.953 96.5666 768.793 95.9932 768.48 95.4732C768.16 94.9532 767.807 94.4799 767.413 94.0599C767.053 93.6666 766.86 93.3066 766.847 92.9732C766.833 92.6399 766.947 92.2132 767.187 91.6799C767.307 91.4266 767.46 91.1132 767.64 90.7399C767.82 90.3666 767.993 89.9999 768.16 89.6266C768.327 89.2532 768.453 88.9666 768.547 88.7532C768.713 88.3599 768.74 88.0799 768.627 87.9132C768.513 87.7466 768.133 87.6666 767.48 87.6666C766.907 87.6666 766.533 87.7332 766.367 87.8732C766.2 88.0066 766.12 88.3199 766.12 88.7999V105.213C766.12 105.5 766.033 105.733 765.86 105.907C765.687 106.08 765.467 106.167 765.193 106.167L765.207 106.133ZM771.807 93.1199C771.52 93.1199 771.267 93.0266 771.06 92.8399C770.847 92.6532 770.74 92.3999 770.74 92.0799V91.0399C770.74 89.9399 770.973 89.1599 771.44 88.7066C771.907 88.2532 772.787 88.0266 774.067 88.0266H776.22V86.0999C776.22 85.7666 776.327 85.5066 776.54 85.3066C776.753 85.1132 777.007 85.0132 777.313 85.0132C777.62 85.0132 777.873 85.1132 778.087 85.3066C778.3 85.4999 778.407 85.7666 778.407 86.0999V88.0266H780.787C782.087 88.0266 782.967 88.2532 783.44 88.7066C783.907 89.1599 784.14 89.9399 784.14 91.0399V92.0799C784.14 92.3999 784.04 92.6532 783.833 92.8399C783.627 93.0266 783.373 93.1199 783.073 93.1199C782.773 93.1199 782.54 93.0266 782.327 92.8399C782.113 92.6532 782.007 92.3999 782.007 92.0799V91.2199C782.007 90.7332 781.907 90.3932 781.7 90.1866C781.493 89.9799 781.107 89.8799 780.533 89.8799H774.347C773.773 89.8799 773.38 89.9799 773.167 90.1866C772.953 90.3932 772.847 90.7332 772.847 91.2199V92.0799C772.847 92.3999 772.747 92.6532 772.54 92.8399C772.333 93.0266 772.093 93.1199 771.807 93.1199ZM773.98 93.7799C773.693 93.7799 773.467 93.6866 773.3 93.5066C773.133 93.3266 773.053 93.1066 773.053 92.8466C773.053 92.5866 773.133 92.3666 773.3 92.1799C773.467 91.9932 773.693 91.8932 773.98 91.8932H780.94C781.227 91.8932 781.453 91.9866 781.62 92.1799C781.787 92.3666 781.867 92.5932 781.867 92.8466C781.867 93.0999 781.787 93.3199 781.62 93.5066C781.453 93.6866 781.227 93.7799 780.94 93.7799H773.98Z" fill="#425267"/>
<path d="M653.675 77.6866H653.422V113.387H799.742V77.6866H653.669H653.675ZM655.242 111.247V79.8266H797.929V111.247H655.242Z" fill="#425267"/>
<path d="M799.999 113.64H653.172V77.4333H799.999V113.64ZM653.672 113.133H799.492V77.9333H653.672V113.133ZM798.179 111.5H654.985V79.5733H798.179V111.5ZM655.492 110.993H797.679V80.0733H655.492V110.993Z" fill="#425267"/>
</svg>
