<svg width="110" height="110" viewBox="0 0 110 110" fill="none" xmlns="http://www.w3.org/2000/svg">
<path d="M77.3918 71.3737V81.2108C77.3918 89.7594 69.9589 100.154 57.745 100.154C45.5311 100.154 38.0943 89.7594 38.0943 81.2108C38.0943 81.2108 38.0943 52.1119 38.0943 45.5983C38.0943 38.688 32.7004 33.4473 25.3265 33.4473C17.9525 33.4473 12.5586 38.688 12.5586 45.5983V74.8465" stroke="#065B8B" stroke-width="5" stroke-miterlimit="10" stroke-linecap="round"/>
<path d="M12.5517 88.9365C16.442 88.9365 19.5957 85.7828 19.5957 81.8926C19.5957 78.0023 16.442 74.8486 12.5517 74.8486C8.66149 74.8486 5.50781 78.0023 5.50781 81.8926C5.50781 85.7828 8.66149 88.9365 12.5517 88.9365Z" stroke="#065B8B" stroke-width="5" stroke-miterlimit="10" stroke-linecap="round"/>
<path d="M70.1758 58.0703V64.3403C70.1758 68.2296 73.3265 71.3803 77.2158 71.3803C77.2747 71.3803 77.3336 71.3803 77.3886 71.3764C77.4436 71.3764 77.5026 71.3764 77.5615 71.3764C81.4508 71.3764 84.6015 68.2257 84.6015 64.3364V58.0664" stroke="#065B8B" stroke-width="5" stroke-miterlimit="10" stroke-linecap="round"/>
<path d="M64.8332 17.098C66.8445 17.098 68.475 15.4675 68.475 13.4562C68.475 11.4449 66.8445 9.81445 64.8332 9.81445C62.8219 9.81445 61.1914 11.4449 61.1914 13.4562C61.1914 15.4675 62.8219 17.098 64.8332 17.098Z" stroke="#065B8B" stroke-width="5" stroke-miterlimit="10" stroke-linecap="round"/>
<path d="M61.1967 13.457H58.1913C53.6499 13.457 50.6445 16.4388 50.6445 20.8663V33.4495C50.6445 44.5006 57.0402 55.2099 70.1695 58.0699C72.3813 58.5492 74.7856 58.8085 77.3824 58.8085C79.9792 58.8085 82.3835 58.5492 84.5952 58.0699C97.7245 55.2099 104.12 44.5006 104.12 33.4495V20.8663C104.12 16.4388 101.115 13.457 96.5735 13.457H93.5681" stroke="#065B8B" stroke-width="5" stroke-miterlimit="10" stroke-linecap="round"/>
<path d="M89.9309 17.098C91.9422 17.098 93.5726 15.4675 93.5726 13.4562C93.5726 11.4449 91.9422 9.81445 89.9309 9.81445C87.9195 9.81445 86.2891 11.4449 86.2891 13.4562C86.2891 15.4675 87.9195 17.098 89.9309 17.098Z" stroke="#065B8B" stroke-width="5" stroke-miterlimit="10" stroke-linecap="round"/>
</svg>
