<svg width="200" height="200" viewBox="0 0 200 200" fill="none" xmlns="http://www.w3.org/2000/svg">
<path d="M104.275 169.468H114.642C124.149 169.468 132.454 175.937 134.868 184.707C135.597 187.341 133.692 189.957 130.962 189.957H49.4257C44.1849 189.957 39.936 185.708 39.936 180.467V110.59C39.936 107.28 37.2585 104.603 33.949 104.603H18.3844C11.3264 104.603 7.43748 96.4126 11.9058 90.9436C13.4947 88.9947 15.8737 87.8711 18.3844 87.8711H40.3749C46.9765 87.8711 52.3314 93.226 52.3314 99.8275" stroke="#065B8B" stroke-width="7.5" stroke-linecap="round" stroke-linejoin="round"/>
<path d="M74.0039 124.296C83.7219 120.539 95.1516 122.417 103.21 130.055C114.368 140.633 114.851 158.313 104.273 169.47" stroke="#065B8B" stroke-width="7.5" stroke-linecap="round" stroke-linejoin="round"/>
<path d="M57.3074 166.842C50.5567 113.758 75.0754 65.2566 128.16 58.5059" stroke="#065B8B" stroke-width="7.5" stroke-linecap="round" stroke-linejoin="round"/>
<path d="M128.164 58.5035L136.012 29.8679C138.409 21.1157 144.694 13.7856 152.911 10.2478C154.834 9.41386 156.993 10.7833 156.993 12.8814V29.0954" stroke="#065B8B" stroke-width="7.5" stroke-linecap="round" stroke-linejoin="round"/>
<path d="M144.56 189.995H148.458C158.668 189.969 159.686 174.58 149.52 173.685C149.029 173.641 148.528 173.623 148.028 173.623C144.595 173.623 141.813 170.858 141.804 167.426L141.777 151.563C141.76 141.274 145.412 131.161 152.575 123.779C162.662 113.376 166.551 98.0838 162.398 83.687C161.371 80.1405 160.704 76.4886 160.695 72.7928C160.678 68.9654 163.785 65.849 167.613 65.8665C170.396 65.8753 173.653 65.8841 176.655 65.8841C182.221 65.8841 187.04 62.0567 188.304 56.6403L189.129 53.1289C189.99 49.4682 187.207 45.9656 183.441 45.9744C179.675 45.9744 176.506 43.1477 176.093 39.408L175.25 31.8233C174.583 25.8188 169.509 21.2803 163.469 21.2891H156.859" stroke="#065B8B" stroke-width="7.5" stroke-linecap="round" stroke-linejoin="round"/>
</svg>
