<svg width="200" height="200" viewBox="0 0 200 200" fill="none" xmlns="http://www.w3.org/2000/svg">
<path d="M82.5 47.334C82.5 47.334 88.3416 51.9044 98.3694 51.4905C108.391 51.0767 114.239 47.334 114.239 47.334" stroke="#065B8B" stroke-width="7.5" stroke-linecap="round" stroke-linejoin="round"/>
<path d="M169.996 43.7074C168.293 37.5878 165 31.9591 160.601 27.3827C153.346 19.8323 143.301 15.4216 132.853 15.0254C121.057 14.5761 110.113 20.2344 98.359 20.2344C86.6048 20.2344 75.6606 14.5761 63.865 15.0254C53.4174 15.4216 43.372 19.8323 36.1172 27.3827C31.7183 31.9591 28.4249 37.5819 26.7221 43.7074C24.901 50.2703 24.6764 57.2531 25.3445 64.0053C26.5447 76.2147 32.1735 87.1175 35.8098 98.6648C40.7763 114.451 40.5812 131.172 43.4074 147.355C45.4946 159.316 48.9475 173.967 59.33 181.547C63.4688 184.569 69.1153 186.023 74.0523 184.19C80.1837 181.914 82.5428 175.392 83.5539 169.444C84.6595 162.941 84.7187 156.324 85.4932 149.785C86.4097 142.081 87.9055 128.015 98.3649 128.015C108.824 128.015 110.326 142.087 111.237 149.785C112.011 156.324 112.076 162.941 113.176 169.444C114.187 175.392 116.546 181.92 122.677 184.19C127.614 186.023 133.261 184.575 137.4 181.547C147.782 173.967 151.229 159.316 153.322 147.355C156.149 131.172 155.953 114.446 160.92 98.6648C164.55 87.1175 170.185 76.2147 171.385 64.0053C172.048 57.2531 171.829 50.2762 170.008 43.7074H169.996Z" stroke="#065B8B" stroke-width="7.5" stroke-linecap="round" stroke-linejoin="round"/>
</svg>
