<svg width="200" height="200" viewBox="0 0 200 200" fill="none" xmlns="http://www.w3.org/2000/svg">
<path d="M140.691 129.787V147.673C140.691 163.216 127.177 182.116 104.97 182.116C82.7625 182.116 69.2411 163.216 69.2411 147.673C69.2411 147.673 69.2411 94.7658 69.2411 82.9229C69.2411 70.3586 59.4339 60.8301 46.0268 60.8301C32.6196 60.8301 22.8125 70.3586 22.8125 82.9229V136.101" stroke="#065B8B" stroke-width="7.5" stroke-miterlimit="10" stroke-linecap="round"/>
<path d="M22.8071 161.718C29.8803 161.718 35.6143 155.984 35.6143 148.911C35.6143 141.837 29.8803 136.104 22.8071 136.104C15.734 136.104 10 141.837 10 148.911C10 155.984 15.734 161.718 22.8071 161.718Z" stroke="#065B8B" stroke-width="7.5" stroke-miterlimit="10" stroke-linecap="round"/>
<path d="M127.578 105.593V116.993C127.578 124.065 133.307 129.793 140.378 129.793C140.485 129.793 140.592 129.793 140.692 129.786C140.792 129.786 140.9 129.786 141.007 129.786C148.078 129.786 153.807 124.057 153.807 116.986V105.586" stroke="#065B8B" stroke-width="7.5" stroke-miterlimit="10" stroke-linecap="round"/>
<path d="M117.871 31.1042C121.528 31.1042 124.493 28.1397 124.493 24.4828C124.493 20.8258 121.528 17.8613 117.871 17.8613C114.215 17.8613 111.25 20.8258 111.25 24.4828C111.25 28.1397 114.215 31.1042 117.871 31.1042Z" stroke="#065B8B" stroke-width="7.5" stroke-miterlimit="10" stroke-linecap="round"/>
<path d="M111.256 24.4824H105.792C97.5346 24.4824 92.0703 29.9038 92.0703 37.9538V60.8324C92.0703 80.9253 103.699 100.397 127.57 105.597C131.592 106.468 135.963 106.94 140.685 106.94C145.406 106.94 149.777 106.468 153.799 105.597C177.67 100.397 189.299 80.9253 189.299 60.8324V37.9538C189.299 29.9038 183.835 24.4824 175.577 24.4824H170.113" stroke="#065B8B" stroke-width="7.5" stroke-miterlimit="10" stroke-linecap="round"/>
<path d="M163.496 31.1042C167.153 31.1042 170.118 28.1397 170.118 24.4828C170.118 20.8258 167.153 17.8613 163.496 17.8613C159.84 17.8613 156.875 20.8258 156.875 24.4828C156.875 28.1397 159.84 31.1042 163.496 31.1042Z" stroke="#065B8B" stroke-width="7.5" stroke-miterlimit="10" stroke-linecap="round"/>
</svg>
