<svg width="400" height="400" viewBox="0 0 400 400" fill="none" xmlns="http://www.w3.org/2000/svg">
<path d="M304.643 269.998L310.023 292.958C310.783 296.21 308.919 299.428 305.846 300.148L144.765 337.886C141.699 338.606 138.593 336.551 137.833 333.299L88.9197 124.482C88.1597 121.23 90.0234 118.012 93.0966 117.291L114.272 112.328" stroke="#333333" stroke-width="6" stroke-linecap="round" stroke-linejoin="round"/>
<path d="M232.656 84.5901L254.168 79.554C257.235 78.8337 260.341 80.889 261.101 84.1407L272.878 134.422" stroke="#333333" stroke-width="6" stroke-linecap="round" stroke-linejoin="round"/>
<path d="M141.094 178.591L150.901 185.755L157.411 165.922" stroke="#85C1C1" stroke-width="6" stroke-linecap="round" stroke-linejoin="round"/>
<path d="M163.234 273.059L173.042 280.216L179.545 260.383" stroke="#85C1C1" stroke-width="6" stroke-linecap="round" stroke-linejoin="round"/>
<path d="M151.578 223.333L161.386 230.498L167.896 210.664" stroke="#85C1C1" stroke-width="6" stroke-linecap="round" stroke-linejoin="round"/>
<path d="M179.016 170.012L209.417 162.895" stroke="#333333" stroke-width="6" stroke-linecap="round" stroke-linejoin="round"/>
<path d="M244.599 203.578L209.234 211.859" stroke="#333333" stroke-width="6" stroke-linecap="round" stroke-linejoin="round"/>
<path d="M197.63 215.475L190.109 217.239" stroke="#333333" stroke-width="6" stroke-linecap="round" stroke-linejoin="round"/>
<path d="M255.682 251.705L245.953 253.985" stroke="#333333" stroke-width="6" stroke-linecap="round" stroke-linejoin="round"/>
<path d="M234.147 256.748L231.609 257.343" stroke="#333333" stroke-width="6" stroke-linecap="round" stroke-linejoin="round"/>
<path d="M219.818 260.105L201.141 264.481" stroke="#333333" stroke-width="6" stroke-linecap="round" stroke-linejoin="round"/>
<path d="M180.254 81.8285L177.426 69.7539L157.499 74.4264L160.328 86.4944L128.109 94.0419L135.234 124.47L219.597 104.709L212.473 74.2811L180.254 81.8285Z" stroke="#333333" stroke-width="6" stroke-linecap="round" stroke-linejoin="round"/>
<path d="M334.68 302.601C336.656 311.047 331.805 319.414 323.835 321.277L138.024 364.804C130.053 366.668 121.99 361.334 120.014 352.888L60.4409 98.5816C58.4649 90.1353 63.3158 81.7684 71.2863 79.9046L257.091 36.3714C265.061 34.5076 273.124 39.8411 275.1 48.2873L308.41 190.486" stroke="#333333" stroke-width="6" stroke-miterlimit="10" stroke-linecap="round"/>
<path d="M327.787 284.664L243.906 165.696L258.611 154.361L342.492 273.329L327.787 284.664Z" stroke="#333333" stroke-width="6" stroke-linecap="round" stroke-linejoin="round"/>
<path d="M240.125 144.25L243.899 165.696L258.604 154.362L240.125 144.25Z" stroke="#333333" stroke-width="6" stroke-linecap="round" stroke-linejoin="round"/>
</svg>
