<svg width="400" height="400" viewBox="0 0 400 400" fill="none" xmlns="http://www.w3.org/2000/svg">
<path d="M77.2855 80.4062L53.7957 85.2871C44.43 91.2012 37.8731 106.456 36 121.086L36.0692 146.016C43.7039 180.528 70.4285 227.22 149.319 226.497C231.748 225.741 316.916 180.654 316.916 129.355L314.448 116.36C312.888 99.7555 302.739 95.086 299.616 96.1229L288.329 97.3213C263.897 144.709 227.888 173.27 150.738 175.935C104.276 177.54 75.4798 168.835 65.2228 149.228L68.0369 140.942C64.9831 128.762 82.8144 113.785 84.1744 103.846C85.277 95.7891 81.4188 83.7033 77.2873 80.4062H77.2855Z" fill="white"/>
<path d="M70.8692 86.1671C60.266 85.4373 50.3712 92.3759 50.3712 92.3759C41.0037 97.7433 38.4825 116.453 36.6094 129.73L36.6786 152.354C44.315 183.673 68.1368 224.101 147.027 223.444C229.456 222.759 314.625 181.841 314.625 135.286L312.157 123.491C310.596 108.423 300.467 104.261 297.324 105.126C279.942 109.909 273.945 130.331 268.4 137.832C262.148 146.287 225.596 175.139 148.444 177.559C101.983 179.015 72.6891 174.377 64.7633 157.217L64.3745 152.663C63.2559 149.36 67.336 140.588 67.336 140.588C64.2822 129.533 77.2859 121.485 78.6459 112.464C79.7485 105.152 75.9045 86.5133 70.871 86.1653L70.8692 86.1671Z" fill="#ECF6F6"/>
<path d="M315.849 130.346C315.849 180.8 230.984 225.144 148.848 225.888C70.2386 226.599 43.608 180.676 36 146.732" stroke="#333333" stroke-width="6" stroke-miterlimit="10" stroke-linecap="round"/>
<path d="M289.081 97.4594C285.782 103.777 279.225 107.937 275.428 113.556C271.477 119.403 269.995 127.059 265.345 132.113C260.652 137.211 253.179 139.281 247.606 143.533C242.217 147.644 238.267 154.337 231.898 157.618C225.977 160.669 218.225 160.09 211.329 162.393C205.063 164.486 199.288 169.688 192.12 171.14C185.655 172.451 178.264 169.992 170.993 170.766C164.419 171.465 157.75 175.483 150.465 175.732C143.708 175.963 137.325 172.428 131.322 172.223C124.47 171.991 117.808 175.009 111.944 174.207C105.02 173.26 99.5635 168.461 94.0276 166.711C87.247 164.568 79.9408 164.951 75.2677 161.588C69.7389 157.609 68.3504 150.607 65.8061 144.897C63.3826 139.457 58.9279 133.866 59.251 126.83C59.5138 121.107 64.1585 115.461 66.2571 108.67C67.9776 103.102 67.017 95.8898 69.9857 89.5957" stroke="#333333" stroke-width="6" stroke-miterlimit="10" stroke-linecap="round"/>
<path d="M298.75 95.4572C301.861 94.4363 311.974 99.0295 313.529 115.36" stroke="#333333" stroke-width="6" stroke-miterlimit="10" stroke-linecap="round"/>
<path d="M36.0781 120.011C37.9459 105.62 44.4797 90.6191 53.8117 84.8008" stroke="#333333" stroke-width="6" stroke-miterlimit="10" stroke-linecap="round"/>
<path d="M257.531 161.941C259.822 161.59 269.571 158.058 273.839 153.847C278.107 149.635 281.39 141.211 284.018 140.3C286.646 139.389 288.082 139.977 293.453 135.087C298.822 130.199 302.936 119.915 303.342 115.791" stroke="#333333" stroke-width="6" stroke-miterlimit="10" stroke-linecap="round"/>
<path d="M67.9906 139.538C64.9474 127.558 82.7147 112.829 84.0694 103.053C85.1667 95.129 81.3245 83.242 77.2072 80" stroke="#333333" stroke-width="6" stroke-miterlimit="10" stroke-linecap="round"/>
<path d="M45.8936 106.602C44.0862 111.861 42.9765 119.698 45.0876 123.245C45.7889 124.422 44.4147 132.556 46.0002 136.59C47.1383 139.487 49.9577 143.26 54.242 145.934" stroke="#333333" stroke-width="6" stroke-miterlimit="10" stroke-linecap="round"/>
<path d="M302.294 275.372C290.597 277.332 286.172 275.045 270.365 279.292C264.435 280.887 258.766 276.364 251.921 277.415C231.166 280.599 228.387 275.631 215.992 273.412C207.649 271.919 200.636 274.188 192.284 272.105C183.671 269.958 176.518 263.515 169.208 260.997C146.448 253.157 139.662 238.935 136.963 237.149C124.411 228.833 116.1 208.727 116.1 208.727C102.19 207.094 92.8567 211.761 91.3262 226.072L88.9062 237.272C88.9062 281.483 172.452 320.341 253.313 320.993C330.701 321.616 356.918 281.375 364.407 251.632L364.475 230.147C362.637 217.537 356.205 204.391 347.016 199.294L323.974 195.086C319.921 197.927 316.137 208.344 317.218 215.287C318.552 223.854 336.044 236.76 333.049 247.259L336.434 259.694L332.64 260.021C318.099 266.228 316.027 273.074 302.294 275.375V275.372Z" fill="white"/>
<path d="M304.94 278.005C293.55 279.852 289.241 277.698 273.851 281.7C268.076 283.202 262.556 278.943 255.892 279.932C235.682 282.932 232.978 278.25 220.906 276.159C212.783 274.751 205.953 276.888 197.819 274.927C189.434 272.904 182.469 266.834 175.349 264.46C153.185 257.072 146.579 243.673 143.951 241.988C131.727 234.151 123.636 215.206 123.636 215.206C110.092 213.667 101.004 218.065 99.5123 231.55L97.1562 242.103C97.1562 283.761 178.507 320.376 257.245 320.99C332.6 321.578 358.129 283.66 365.422 255.632L365.488 235.388C363.698 223.507 357.436 211.119 348.488 206.316L326.051 202.352C322.104 205.029 318.42 214.842 319.473 221.387C320.77 229.458 337.804 241.62 334.886 251.511L338.183 263.228L334.49 263.535C320.33 269.383 318.313 275.834 304.94 278.003V278.005Z" fill="#ECF6F6"/>
<path d="M90.7969 237.27C90.7969 281.481 174.343 320.339 255.204 320.991C332.592 321.614 358.809 281.373 366.298 251.63" stroke="#333333" stroke-width="6" stroke-miterlimit="10" stroke-linecap="round"/>
<path d="M120.359 208.762C123.783 214.597 124.5 222.082 128.472 227.235C132.541 232.517 139.565 235.054 144.391 239.583C149.149 244.05 152.134 250.923 157.803 254.623C163.156 258.116 170.638 258.146 176.955 260.923C182.732 263.462 187.739 269.028 194.44 270.944C200.482 272.671 207.715 270.683 214.595 271.885C220.792 272.966 226.876 277.348 233.815 277.991C240.098 278.571 246.918 275.427 253.858 275.638C260.165 275.83 266.132 279.4 271.773 279.249C278.163 279.079 283.882 275.15 289.411 274.537C295.888 273.82 302.399 276.284 307.684 274.956C314.165 273.326 318.46 267.956 323.133 265.393C328.969 262.194 335.739 260.777 338.722 256.106C341.834 251.232 340.11 244.606 340.073 238.104C340.043 232.803 342.418 226.381 340.268 219.982C338.551 214.87 332.903 210.802 329.821 204.982" stroke="#333333" stroke-width="6" stroke-miterlimit="10" stroke-linecap="round"/>
<path d="M107.769 208.628C104.706 207.733 94.751 211.758 93.2188 226.069" stroke="#333333" stroke-width="6" stroke-miterlimit="10" stroke-linecap="round"/>
<path d="M366.365 230.144C364.527 217.534 358.094 204.388 348.906 199.291" stroke="#333333" stroke-width="6" stroke-miterlimit="10" stroke-linecap="round"/>
<path d="M148.349 266.886C146.094 266.577 136.496 263.484 132.293 259.793C128.091 256.101 124.859 248.721 122.273 247.922C119.686 247.123 118.271 247.638 112.985 243.355C107.699 239.071 103.649 230.06 103.25 226.445" stroke="#333333" stroke-width="6" stroke-miterlimit="10" stroke-linecap="round"/>
<path d="M334.939 247.255C337.935 236.756 320.442 223.85 319.109 215.284C318.028 208.34 321.811 197.923 325.865 195.082" stroke="#333333" stroke-width="6" stroke-miterlimit="10" stroke-linecap="round"/>
<path d="M356.703 218.395C358.484 223.002 359.576 229.871 357.497 232.978C356.806 234.01 358.159 241.137 356.598 244.672C355.478 247.211 352.703 250.517 348.484 252.86" stroke="#333333" stroke-width="6" stroke-miterlimit="10" stroke-linecap="round"/>
</svg>
