<svg xmlns="http://www.w3.org/2000/svg" viewBox="0 0 318.19 48" fill="none">
  <!-- Mark/Symbol -->
  <g transform="translate(0, 0)" fill="#FFFFFF">
    <path d="M62.0334 32.1156V32.0228C62.0334 31.2326 61.6065 30.8111 60.8005 30.8111H57.9262L50.9818 10.9324C50.7458 10.2801 50.3189 9.95393 49.6056 9.95393H46.2859C45.5752 9.95393 45.1483 10.2801 44.9097 10.9324L37.9653 30.8111H29.3027C28.6 30.8111 28.0326 30.2516 28.0326 29.5648V2.45799C28.0326 1.10039 26.911 0 25.5295 0H25.4632C24.0791 0 22.9601 1.10039 22.9601 2.45799V19.5976C21.1677 18.2639 18.7203 16.8665 15.3953 15.4665L0.0188992 9.00468C0.0188992 9.00468 -1.51105 24.45 22.9601 27.9262V30.8853C21.2446 30.6254 19.2745 30.4584 17.0233 30.4398L3.98562 30.3285C3.98562 30.3285 13.8521 43.9097 33.6061 35.5706C33.6061 35.5706 32.8451 34.4941 30.7318 33.3247H37.0876L35.5391 37.7608C33.6751 37.5301 30.814 38.01 26.6909 40.696L18.076 46.3067C18.076 46.3067 26.2083 51.6841 34.9054 43.2734C34.9664 43.2787 35.03 43.284 35.0963 43.284H37.4191C38.1774 43.284 38.6043 42.9578 38.843 42.3055L41.7358 33.3698H54.0178L56.9106 42.3055C57.1466 42.9552 57.5762 43.284 58.3345 43.284H60.8005C61.702 43.284 62.0812 42.7245 61.7975 41.8866L58.8065 33.3274H60.8005C61.6065 33.3274 62.0334 32.9084 62.0334 32.1156ZM47.9007 14.4695L53.2303 30.8111H42.5684L47.898 14.4695H47.9007Z"/>
  </g>
  <!-- Main text -->
  <g transform="translate(74.59, 5)" fill="#FFFFFF">
    <path d="M165.21 5.26454C164.762 4.82969 164.038 4.61226 163.063 4.62552L159.719 4.65999C160.003 4.11907 159.849 4.36832 160.061 3.86983C160.135 3.67626 160.172 3.50391 160.172 3.35543C160.172 2.59178 159.48 2.13571 158.809 2.13571C158.247 2.13571 157.773 2.45655 157.545 2.98951C156.527 5.35735 154.684 7.93731 152.849 9.56536C152.491 9.89681 152.295 10.276 152.295 10.6366C152.295 11.3101 152.881 11.8563 153.597 11.8563C153.984 11.8563 154.334 11.7158 154.636 11.44C155.734 10.4748 157.232 8.46762 158.216 7.0623L162.516 7.02518C162.845 7.02518 162.845 7.09677 162.845 7.13654C162.845 7.19222 162.829 7.26647 162.8 7.33276C162.8 7.33806 162.8 7.34071 162.795 7.34601C161.567 11.098 158.526 14.9904 154.755 17.1674C154.262 17.4484 153.968 17.9045 153.968 18.3818C153.968 19.0977 154.562 19.6784 155.291 19.6784C155.561 19.6784 155.805 19.6121 156.036 19.4795C160.361 17.1223 164.166 12.2355 165.539 7.68011C165.661 7.29563 165.725 6.92972 165.725 6.59828C165.725 6.04675 165.552 5.59599 165.208 5.26454H165.21Z"/>
    <path d="M8.95426 2.8914C8.28076 2.8914 7.55424 3.26262 7.55424 4.07134V9.65286C7.55424 13.5241 6.25763 15.7276 3.08107 17.2602C2.5481 17.52 2.24317 17.9522 2.24317 18.4401C2.24317 19.164 2.86629 19.7765 3.60608 19.7765C3.80229 19.7765 4.01706 19.7208 4.28222 19.6015C8.3444 17.7003 10.3198 14.4972 10.3198 9.80665V4.07134C10.3198 3.29444 9.63571 2.8914 8.95691 2.8914H8.95426Z"/>
    <path d="M2.76291 11.9915V4.40279C2.76291 3.60202 2.06821 3.18307 1.38146 3.18307C0.694705 3.18307 0 3.60202 0 4.40279V11.9915C0 12.779 0.694705 13.1927 1.38146 13.1927C2.06821 13.1927 2.76291 12.779 2.76291 11.9915Z"/>
    <path d="M33.9717 13.8662C33.9717 13.8662 33.9717 13.8662 33.969 13.8635L25.2719 7.23995C24.7151 6.8157 24.1397 6.60093 23.5537 6.60093C22.9067 6.60093 22.2836 6.87934 21.7029 7.43086L17.5506 11.4108C17.2589 11.6972 17.0998 12.0605 17.0998 12.4396C17.0998 13.1237 17.6938 13.6806 18.4229 13.6806C18.8048 13.6806 19.1919 13.5082 19.5101 13.198L23.0738 9.67938C23.3257 9.41157 23.4689 9.3771 23.5749 9.3771C23.7261 9.3771 23.9011 9.46195 24.1158 9.64226L32.1235 16.0537C32.4576 16.3242 32.8341 16.4674 33.2133 16.4674C33.9982 16.4674 34.6345 15.8495 34.6345 15.0939C34.6345 14.6457 34.4039 14.2241 33.9717 13.8794V13.8741V13.8662Z"/>
    <path d="M58.4191 17.1117L58.2971 17.0374C57.7296 16.6954 57.194 16.3746 56.6902 15.9848C55.3247 14.956 54.1686 13.7495 53.2512 12.3999C52.5618 11.3923 52.0049 10.3264 51.5595 9.15437H57.6687C58.4137 9.15437 58.7558 8.52065 58.7558 7.93466C58.7558 7.34867 58.3819 6.73351 57.6687 6.73351H51.1777C51.2705 5.55622 51.3182 4.27286 51.3182 2.91262C51.3182 2.12776 50.6314 1.7698 49.9951 1.7698C49.3587 1.7698 48.6719 2.16223 48.6719 2.91262C48.6719 4.48499 48.6348 5.70735 48.55 6.73351H42.6158C41.9025 6.73351 41.5287 7.33806 41.5287 7.93466C41.5287 8.53126 41.8707 9.15437 42.6158 9.15437H48.2609C47.8924 11.1643 47.2587 12.3495 46.4261 13.4976C45.323 15.0276 43.6817 16.3825 41.7938 17.3185C41.3192 17.5625 41.0381 17.9947 41.0381 18.4772C41.0381 19.1057 41.518 19.7553 42.3215 19.7553C42.5628 19.7553 42.8041 19.6969 43.04 19.5803C45.087 18.5833 47.1393 16.8492 48.5235 14.9427C49.2526 13.951 49.8015 12.9222 50.2284 11.7396C51.6602 14.9745 54.1368 17.7613 57.0959 19.4424C57.3399 19.575 57.5918 19.6413 57.841 19.6413C58.5702 19.6413 59.1827 19.0288 59.1827 18.3049C59.1827 17.8276 58.9043 17.3927 58.4164 17.1117H58.4137H58.4191Z"/>
    <path d="M68.5055 6.56911H76.8871C77.5871 6.56911 77.953 5.94599 77.953 5.32818C77.953 4.71037 77.5871 4.08725 76.8871 4.08725H68.5055C67.7869 4.08725 67.4608 4.72893 67.4608 5.32818C67.4608 5.92743 67.7869 6.56911 68.5055 6.56911Z"/>
    <path d="M79.5916 8.88391H65.5225C64.9073 8.88391 64.4778 9.38505 64.4778 10.1036C64.4778 10.7108 64.8384 11.3233 65.5225 11.3233H71.34C71.0324 14.0147 69.9426 15.7196 67.6172 17.1753C67.0524 17.528 66.9331 17.9761 66.9331 18.289C66.9331 19.0128 67.5403 19.6254 68.2562 19.6254C68.4816 19.6254 68.7123 19.5617 68.9695 19.4238C71.9817 17.6393 73.6813 14.9162 74.026 11.326H79.589C80.289 11.326 80.6549 10.7108 80.6549 10.1063C80.6549 9.50172 80.289 8.88656 79.589 8.88656L79.5916 8.88391Z"/>
    <path d="M94.8593 9.83317C95.623 9.80401 96.2912 9.07748 96.262 8.30853C96.2461 7.93466 96.0949 7.61382 95.8165 7.35927C94.9283 6.50017 93.857 5.67289 92.7938 5.02591C92.4835 4.84825 92.1892 4.76605 91.8869 4.77666C91.11 4.80583 90.4524 5.47402 90.4816 6.20585C90.4922 6.48426 90.6036 6.8873 91.0729 7.20813C91.94 7.81534 92.8892 8.58164 93.8199 9.42749C94.207 9.78014 94.6021 9.84378 94.862 9.83317H94.8593Z"/>
    <path d="M103.832 6.30925C103.331 6.30925 102.901 6.5638 102.652 7.00926C100.398 10.9521 96.2885 14.3355 91.6642 16.0537C91.0915 16.2552 90.7627 16.6954 90.7627 17.2628C90.7627 17.9231 91.2903 18.6363 92.1441 18.6363C92.3642 18.6363 92.5578 18.6019 92.746 18.5276C97.9404 16.5946 102.297 12.9567 105.009 8.27935C105.158 8.01155 105.232 7.77821 105.232 7.56609C105.232 6.78918 104.503 6.3066 103.832 6.3066V6.30925Z"/>
    <path d="M133.699 3.79823C133.013 3.79823 132.318 4.21187 132.318 4.99938V7.10472C132.318 11.5487 131.424 13.9908 129.022 16.1094C128.576 16.4965 128.481 16.9075 128.481 17.1833C128.481 17.8965 129.104 18.5011 129.844 18.5011C130.215 18.5011 130.547 18.3712 130.859 18.106C133.752 15.6798 135.041 12.3071 135.041 7.17896V4.99673C135.041 4.1721 134.346 3.79558 133.699 3.79558V3.79823Z"/>
    <path d="M145.31 11.6044C144.876 11.6044 144.475 11.8165 144.184 12.209C143.295 13.4472 141.871 14.5848 140.559 15.2901C140.405 15.367 140.302 15.4041 140.254 15.4041C140.235 15.4041 140.18 15.4041 140.18 15.1575V4.51681C140.18 3.70543 139.474 3.33421 138.817 3.33421C138.159 3.33421 137.454 3.7399 137.454 4.51681V15.8336C137.454 17.3026 138.363 18.289 139.721 18.289C140.27 18.289 140.869 18.2465 141.508 17.9204C143.42 16.9234 145.157 15.3988 146.4 13.6275C146.578 13.3677 146.671 13.0946 146.671 12.8427C146.671 12.1002 145.968 11.6018 145.308 11.6018L145.31 11.6044Z"/>
    <path d="M181.475 2.8914C180.801 2.8914 180.075 3.26262 180.075 4.07134V9.65286C180.075 13.5241 178.778 15.7276 175.602 17.2602C175.069 17.52 174.764 17.9522 174.764 18.4401C174.764 19.164 175.387 19.7765 176.127 19.7765C176.323 19.7765 176.538 19.7208 176.803 19.6015C180.865 17.7003 182.84 14.4972 182.84 9.80665V4.07134C182.84 3.29444 182.156 2.8914 181.478 2.8914H181.475Z"/>
    <path d="M175.278 11.9915V4.40279C175.278 3.60202 174.584 3.18307 173.9 3.18307C173.215 3.18307 172.518 3.60202 172.518 4.40279V11.9915C172.518 12.779 173.213 13.1927 173.9 13.1927C174.586 13.1927 175.278 12.779 175.278 11.9915Z"/>
    <path d="M192.569 7.91875H202.603C203.432 7.91875 203.865 7.26647 203.865 6.62214C203.865 5.97781 203.47 5.32553 202.603 5.32553H192.569C191.702 5.32553 191.304 5.99902 191.304 6.62214C191.304 7.24525 191.736 7.91875 192.569 7.91875Z"/>
    <path d="M204.766 14.3435H190.403C189.536 14.3435 189.138 15.017 189.138 15.6401C189.138 16.2632 189.57 16.9367 190.403 16.9367H204.766C205.596 16.9367 206.028 16.2844 206.028 15.6401C206.028 14.9957 205.633 14.3435 204.766 14.3435Z"/>
    <path d="M223.529 8.45701C222.945 8.45701 222.524 8.72217 222.378 9.18354C221.216 12.9116 218.894 15.6533 215.481 17.3371C215.022 17.5571 214.768 17.9018 214.768 18.3102C214.768 18.8962 215.317 19.3894 215.966 19.3894C216.163 19.3894 216.359 19.3416 216.608 19.2303C220.429 17.4246 223.576 13.7787 224.82 9.70589L224.831 9.66612C224.846 9.59188 224.862 9.52559 224.862 9.45135C224.862 8.82823 224.184 8.45436 223.526 8.45436L223.529 8.45701Z"/>
    <path d="M242.577 5.26454C242.129 4.82969 241.405 4.61226 240.43 4.62552L237.086 4.65999C237.37 4.11907 237.216 4.36832 237.428 3.86983C237.502 3.67626 237.539 3.50391 237.539 3.35543C237.539 2.59178 236.847 2.13571 236.177 2.13571C235.614 2.13571 235.14 2.45655 234.912 2.98951C233.894 5.35735 232.051 7.93731 230.216 9.56536C229.858 9.89681 229.662 10.276 229.662 10.6366C229.662 11.3101 230.245 11.8563 230.964 11.8563C231.351 11.8563 231.701 11.7158 232.003 11.44C233.101 10.4748 234.599 8.46762 235.58 7.0623L239.881 7.02518C240.21 7.02518 240.21 7.09677 240.21 7.13654C240.21 7.19222 240.194 7.26647 240.164 7.33276C240.164 7.33806 240.162 7.34071 240.159 7.34601C238.932 11.098 235.89 14.9904 232.12 17.1674C231.626 17.4484 231.332 17.9045 231.332 18.3818C231.332 19.0977 231.926 19.6784 232.655 19.6784C232.926 19.6784 233.17 19.6121 233.4 19.4795C237.725 17.1223 241.53 12.2355 242.904 7.68011C243.026 7.29563 243.089 6.92972 243.089 6.59828C243.089 6.04675 242.917 5.59599 242.572 5.26454H242.577Z"/>
    <path d="M29.4163 7.97973C30.3205 7.97973 31.055 7.25851 31.055 6.37289C31.055 5.48727 30.3205 4.76605 29.4163 4.76605C28.5121 4.76605 27.7776 5.48727 27.7776 6.37289C27.7776 7.25851 28.5121 7.97973 29.4163 7.97973Z"/>
    <path d="M33.619 4.7634C32.7148 4.7634 31.9804 5.48462 31.9804 6.37024C31.9804 7.25586 32.7148 7.97708 33.619 7.97708C34.5232 7.97708 35.2577 7.25586 35.2577 6.37024C35.2577 5.48462 34.5232 4.7634 33.619 4.7634Z"/>
    <path d="M212.938 8.45701C212.034 8.45701 211.3 9.17824 211.3 10.0639C211.3 10.9495 212.034 11.6707 212.938 11.6707C213.843 11.6707 214.574 10.9495 214.574 10.0639C214.574 9.17824 213.84 8.45701 212.938 8.45701Z"/>
    <path d="M217.512 11.6733C218.416 11.6733 219.151 10.9521 219.151 10.0665C219.151 9.18088 218.416 8.45966 217.512 8.45966C216.608 8.45966 215.874 9.18088 215.874 10.0665C215.874 10.9521 216.608 11.6733 217.512 11.6733Z"/>
    <path d="M79.3689 3.02928C79.6128 3.15656 79.878 3.21754 80.1378 3.21754C80.7238 3.21754 81.2913 2.90996 81.5856 2.36639C82.0125 1.58418 81.7076 0.608413 80.9121 0.189468C80.5276 -0.0120504 80.0848 -0.0544749 79.6659 0.0701481C79.2469 0.194771 78.9022 0.473184 78.698 0.852356C78.4912 1.23153 78.4488 1.66638 78.5761 2.07737C78.7033 2.48836 78.9871 2.82776 79.3715 3.02928H79.3689Z"/>
    <path d="M83.6884 3.54103C82.8902 3.12209 81.8959 3.41906 81.4717 4.20392C81.0448 4.98613 81.3497 5.9619 82.1452 6.38085C82.3864 6.50812 82.649 6.56911 82.9141 6.56911C83.0732 6.56911 83.2349 6.54525 83.394 6.50017C83.813 6.37555 84.1577 6.09713 84.3618 5.71796C84.5687 5.33879 84.6111 4.90393 84.4838 4.49294C84.3565 4.08195 84.0728 3.74255 83.6884 3.54103Z"/>
    <path d="M123.56 5.26454C123.112 4.82969 122.39 4.61226 121.415 4.62552L118.071 4.65999C118.355 4.11907 118.198 4.36832 118.413 3.86983C118.487 3.67626 118.524 3.50391 118.524 3.35543C118.524 2.59178 117.832 2.13571 117.162 2.13571C116.599 2.13571 116.125 2.45655 115.897 2.98951C114.876 5.35735 113.036 7.93731 111.201 9.56536C110.843 9.89681 110.647 10.276 110.647 10.6366C110.647 11.3101 111.233 11.8563 111.949 11.8563C112.336 11.8563 112.686 11.7158 112.988 11.44C114.086 10.4748 115.584 8.46762 116.568 7.0623L120.868 7.02518C121.197 7.02518 121.197 7.09677 121.197 7.13654C121.197 7.19222 121.181 7.26647 121.152 7.33276C121.152 7.33806 121.15 7.34071 121.147 7.34601C120.648 8.86535 119.856 10.4059 118.837 11.8484C118.424 11.5328 117.57 10.9415 117.146 10.6737C116.896 10.512 116.629 10.4271 116.345 10.4271C115.65 10.4271 115.062 10.9866 115.062 11.6468C115.062 12.0472 115.255 12.3866 115.642 12.6597C116.024 12.909 116.849 13.495 117.246 13.8105C116.944 14.1393 116.631 14.4548 116.305 14.7624L115.276 15.6639C114.587 16.2234 113.863 16.7299 113.107 17.1647C112.614 17.4458 112.32 17.9018 112.32 18.3791C112.32 19.095 112.914 19.6757 113.643 19.6757C113.913 19.6757 114.157 19.6094 114.388 19.4769C118.713 17.1196 122.518 12.2328 123.891 7.67746C124.013 7.29298 124.077 6.92707 124.077 6.59562C124.077 6.0441 123.904 5.59334 123.56 5.26189V5.26454Z"/>
  </g>
  <!-- Sub text -->
  <g transform="translate(74.59, 33.83)" fill="#FFFFFF">
    <path d="M0.835294 9.40506C0.294377 9.40506 5.56985e-05 9.11604 5.56985e-05 8.58573V0.97312C5.56985e-05 0.442809 0.294377 0.153787 0.835294 0.153787H1.0103C1.55121 0.153787 1.84553 0.442809 1.84553 0.97312V7.66564H4.12322C4.66414 7.66564 4.95846 7.95466 4.95846 8.48497V8.58308C4.95846 9.11339 4.66414 9.40241 4.12322 9.40241H0.837948L0.835294 9.40506Z"/>
    <path d="M7.9175 9.40506C7.37658 9.40506 7.08226 9.11604 7.08226 8.58573V0.97312C7.08226 0.442809 7.37658 0.153787 7.9175 0.153787H8.08454C8.62546 0.153787 8.91979 0.442809 8.91979 0.97312V8.58573C8.91979 9.11604 8.62546 9.40506 8.08454 9.40506H7.9175Z"/>
    <path d="M12.3138 9.40506C11.7729 9.40506 11.4786 9.11604 11.4786 8.58573V0.97312C11.4786 0.442809 11.7729 0.153787 12.3138 0.153787H14.3502C16.2063 0.153787 17.4711 0.973118 17.4711 2.67807V2.81064C17.4711 3.80763 17.0362 4.42279 16.2885 4.75688C17.084 5.09893 17.5586 5.73266 17.5586 6.75616V6.86752C17.5586 8.57777 16.3018 9.40506 14.4457 9.40506H12.3138ZM13.3135 4.06748H14.4483C15.09 4.06748 15.6309 3.82354 15.6309 3.07845V2.86898C15.6309 2.06291 15.0158 1.89321 14.2813 1.89321H13.3135V4.07013V4.06748ZM13.3135 7.68685H14.3767C15.0847 7.68685 15.7264 7.49594 15.7264 6.66335V6.46183C15.7264 5.68758 15.1324 5.47281 14.4457 5.47281H13.3161V7.68951L13.3135 7.68685Z"/>
    <path d="M20.6318 9.40506C20.0908 9.40506 19.7965 9.11604 19.7965 8.58573V0.97312C19.7965 0.442809 20.0882 0.153787 20.6318 0.153787H24.2326C24.7735 0.153787 25.0678 0.442809 25.0678 0.97312V1.07653C25.0678 1.60684 24.7761 1.89586 24.2326 1.89586H21.634V3.99324H23.3443C23.8852 3.99324 24.1795 4.269 24.1795 4.78075C24.1795 5.2925 23.8852 5.57356 23.3443 5.57356H21.634V7.66564H24.2326C24.7735 7.66564 25.0678 7.95466 25.0678 8.48497V8.58308C25.0678 9.11339 24.7761 9.40241 24.2326 9.40241H20.6318V9.40506Z"/>
    <path d="M28.1171 9.40506C27.5762 9.40506 27.2819 9.11604 27.2819 8.58573V0.97312C27.2819 0.442809 27.5736 0.153787 28.1171 0.153787H30.2622C32.1448 0.153787 33.407 1.34699 33.407 3.5027V3.75725C33.407 5.11485 32.8342 6.03493 31.9195 6.50161L33.0384 8.43194C33.3248 8.98876 33.1127 9.40241 32.524 9.40241H32.1899C31.7232 9.40241 31.4077 9.20619 31.2221 8.77929L30.2622 7.01601H29.1247V8.58308C29.1247 9.11339 28.833 9.40241 28.2895 9.40241H28.1145L28.1171 9.40506ZM29.1247 5.30045H30.0395C30.835 5.30045 31.5827 4.9584 31.5827 3.73869V3.47618C31.5827 2.19813 30.8615 1.89056 30.0395 1.89056H29.1247V5.30045Z"/>
    <path d="M35.7589 9.40506C35.1649 9.40506 34.8891 9.05771 35.0509 8.48762L37.3418 0.851148C37.4771 0.379171 37.7899 0.156442 38.2778 0.156442H38.8108C39.2987 0.156442 39.6116 0.371217 39.7441 0.851148L41.9953 8.48762C42.1571 9.06301 41.8813 9.40506 41.3006 9.40506H41.1203C40.6245 9.40506 40.3222 9.17702 40.1976 8.69709L39.8767 7.58344H37.1589L36.838 8.70505C36.7134 9.18498 36.4032 9.40771 35.91 9.40771H35.7562L35.7589 9.40506ZM37.5487 6.02168H39.4975L38.543 2.21405L37.5487 6.02168Z"/>
    <path d="M44.9041 9.40506C44.3632 9.40506 44.0688 9.11604 44.0688 8.58573V0.97312C44.0688 0.442809 44.3605 0.153787 44.9041 0.153787H45.0791C45.62 0.153787 45.9143 0.442809 45.9143 0.97312V7.66564H48.1894C48.7303 7.66564 49.0246 7.95466 49.0246 8.48497V8.58308C49.0246 9.11339 48.7303 9.40241 48.1894 9.40241H44.9041V9.40506Z"/>
    <path d="M51.3235 9.40506C50.7295 9.40506 50.4538 9.05771 50.6155 8.48762L52.9065 0.851148C53.0417 0.379171 53.3546 0.156442 53.8398 0.156442H54.3728C54.8606 0.156442 55.1735 0.371217 55.3088 0.851148L57.5599 8.48762C57.7217 9.06301 57.4459 9.40506 56.8652 9.40506H56.6849C56.1891 9.40506 55.8868 9.17702 55.7648 8.69709L55.444 7.58344H52.7262L52.4053 8.70505C52.2807 9.18498 51.9705 9.40771 51.4773 9.40771H51.3235V9.40506ZM53.1133 6.02168H55.0648L54.1076 2.21405L53.1133 6.02168Z"/>
    <path d="M60.2937 9.40506C59.7528 9.40506 59.4585 9.11604 59.4585 8.58573V0.97312C59.4585 0.442809 59.7528 0.153787 60.2937 0.153787H62.4388C64.3214 0.153787 65.5836 1.34699 65.5836 3.5027V3.75725C65.5836 5.11485 65.0108 6.03493 64.0961 6.50161L65.215 8.43194C65.5014 8.98876 65.2893 9.40241 64.7006 9.40241H64.3665C63.8998 9.40241 63.5843 9.20619 63.3987 8.77929L62.4388 7.01601H61.3013V8.58308C61.3013 9.11339 61.0097 9.40241 60.4661 9.40241H60.2911L60.2937 9.40506ZM61.3013 5.30045H62.2161C63.0116 5.30045 63.7593 4.9584 63.7593 3.73869V3.47618C63.7593 2.19813 63.0381 1.89056 62.2161 1.89056H61.3013V5.30045Z"/>
    <path d="M69.9321 9.40506C69.3912 9.40506 69.0969 9.11604 69.0969 8.58573V1.89851H67.9885C67.4476 1.89851 67.1533 1.60949 67.1533 1.07918V0.975771C67.1533 0.44546 67.445 0.156442 67.9885 0.156442H72.064C72.6049 0.156442 72.8992 0.44546 72.8992 0.975771V1.07918C72.8992 1.60949 72.65 1.89851 72.1966 1.89851H70.9477V8.58573C70.9477 9.11604 70.656 9.40506 70.1124 9.40506H69.9295H69.9321Z"/>
    <path d="M77.3299 9.40506C75.7204 9.40506 74.514 8.46111 74.2382 7.07169C74.0977 6.48835 74.4132 6.141 74.9992 6.141H75.0549C75.5826 6.141 75.7814 6.37699 75.9246 6.70578C76.1314 7.32094 76.6061 7.70807 77.3856 7.70807C78.1201 7.70807 78.661 7.32889 78.661 6.64744C78.661 5.88114 77.8682 5.68228 76.964 5.45159C75.7443 5.13606 74.3045 4.75423 74.3045 2.87163C74.3045 1.1932 75.4792 0.156442 77.3512 0.156442C78.8731 0.156442 80.0027 0.981073 80.3235 2.3917C80.4773 2.94853 80.1751 3.3224 79.5705 3.3224H79.5175C79.0587 3.3224 78.8572 3.09966 78.7034 2.78943C78.4887 2.23791 78.0352 1.84813 77.3246 1.84813C76.614 1.84813 76.1288 2.23526 76.1288 2.87163C76.1288 3.66179 76.9269 3.85006 77.839 4.06748C79.0614 4.36181 80.5038 4.70916 80.5038 6.60237C80.5038 8.33383 79.255 9.40771 77.3326 9.40771L77.3299 9.40506Z"/>
    <path d="M88.4267 9.25127C87.8857 9.25127 87.5914 8.96225 87.5914 8.43194V0.819331C87.5914 0.28902 87.8857 1.10719e-07 88.4267 1.10719e-07H90.6831C92.5392 1.10719e-07 93.8358 1.20116 93.8358 3.44702V5.82016C93.8358 8.05542 92.5392 9.24862 90.6831 9.24862H88.4267V9.25127ZM89.4342 7.53306H90.4631C91.2638 7.53306 92.0063 7.17776 92.0063 5.65842V3.60081C92.0063 2.09207 91.293 1.73942 90.4631 1.73942H89.4342V7.53572V7.53306Z"/>
    <path d="M97.0602 9.25127C96.5193 9.25127 96.225 8.96225 96.225 8.43194V0.819331C96.225 0.28902 96.5193 1.10719e-07 97.0602 1.10719e-07H100.658C101.199 1.10719e-07 101.494 0.28902 101.494 0.819331V0.922741C101.494 1.45305 101.199 1.74207 100.658 1.74207H98.0598V3.83945H99.7701C100.311 3.83945 100.605 4.11521 100.605 4.62696C100.605 5.13871 100.314 5.41977 99.7701 5.41977H98.0598V7.51185H100.658C101.199 7.51185 101.494 7.80087 101.494 8.33118V8.42929C101.494 8.9596 101.199 9.24862 100.658 9.24862H97.0602V9.25127Z"/>
    <path d="M104.538 9.25127C103.997 9.25127 103.702 8.96225 103.702 8.43194V0.819331C103.702 0.28902 103.994 1.10719e-07 104.538 1.10719e-07H104.744C105.211 1.10719e-07 105.537 0.193562 105.725 0.609856L108.191 5.51258V0.819331C108.191 0.28902 108.483 1.10719e-07 109.027 1.10719e-07H109.207C109.748 1.10719e-07 110.042 0.28902 110.042 0.819331V8.43194C110.042 8.96225 109.75 9.25127 109.207 9.25127H108.995C108.528 9.25127 108.202 9.05771 108.014 8.64141L105.55 3.76521V8.43194C105.55 8.96225 105.256 9.25127 104.715 9.25127H104.54H104.538Z"/>
    <path d="M114.926 9.25127C114.385 9.25127 114.091 8.96225 114.091 8.43194V1.74472H112.983C112.442 1.74472 112.147 1.45571 112.147 0.925395V0.821984C112.147 0.291674 112.439 0.00265527 112.983 0.00265527H117.058C117.599 0.00265527 117.893 0.291674 117.893 0.821984V0.925395C117.893 1.45571 117.644 1.74472 117.191 1.74472H115.942V8.43194C115.942 8.96225 115.65 9.25127 115.107 9.25127H114.924H114.926Z"/>
    <path d="M119.344 9.25128C118.747 9.25128 118.474 8.90392 118.636 8.33384L120.927 0.697361C121.062 0.225384 121.375 0.00265527 121.86 0.00265527H122.396C122.884 0.00265527 123.197 0.21743 123.329 0.697361L125.58 8.33384C125.742 8.90922 125.466 9.25128 124.886 9.25128H124.705C124.209 9.25128 123.907 9.02324 123.785 8.54331L123.464 7.42966H120.746L120.426 8.55127C120.301 9.0312 119.991 9.25393 119.498 9.25393H119.344V9.25128ZM121.134 5.86789H123.083L122.128 2.06026L121.134 5.86789Z"/>
    <path d="M128.322 9.25127C127.781 9.25127 127.487 8.96225 127.487 8.43194V0.819331C127.487 0.28902 127.778 1.10719e-07 128.322 1.10719e-07H128.497C129.038 1.10719e-07 129.332 0.28902 129.332 0.819331V7.51185H131.61C132.151 7.51185 132.445 7.80087 132.445 8.33118V8.42929C132.445 8.9596 132.151 9.24862 131.61 9.24862H128.325L128.322 9.25127Z"/>
    <path d="M141.163 9.24862C139.299 9.24862 138.011 7.9308 138.011 6.04289V3.19247C138.011 1.31252 139.299 1.10719e-07 141.163 1.10719e-07C143.028 1.10719e-07 144.101 1.15873 144.242 2.67276C144.29 3.21103 144.022 3.50535 143.473 3.50535H143.293C142.677 3.50535 142.537 3.21634 142.46 2.85838C142.333 2.25117 142.033 1.73412 141.161 1.73412C140.532 1.73412 139.851 2.06821 139.851 3.13149V6.10123C139.851 7.13798 140.458 7.51185 141.161 7.51185C142.073 7.51185 142.373 6.93381 142.471 6.32395C142.54 5.94478 142.675 5.63985 143.29 5.63985H143.465C144.038 5.63985 144.287 6.00046 144.239 6.53873C144.099 8.07928 142.977 9.25392 141.161 9.25392L141.163 9.24862Z"/>
    <path d="M147.379 9.25127C146.838 9.25127 146.543 8.96225 146.543 8.43194V0.819331C146.543 0.28902 146.835 1.10719e-07 147.379 1.10719e-07H147.554C148.095 1.10719e-07 148.389 0.28902 148.389 0.819331V7.51185H150.667C151.208 7.51185 151.502 7.80087 151.502 8.33118V8.42929C151.502 8.9596 151.208 9.24862 150.667 9.24862H147.379V9.25127Z"/>
    <path d="M154.4 9.25127C153.859 9.25127 153.565 8.96225 153.565 8.43194V0.819331C153.565 0.28902 153.856 1.10719e-07 154.4 1.10719e-07H154.567C155.108 1.10719e-07 155.402 0.28902 155.402 0.819331V8.43194C155.402 8.96225 155.111 9.25127 154.567 9.25127H154.4Z"/>
    <path d="M158.799 9.25127C158.258 9.25127 157.964 8.96225 157.964 8.43194V0.819331C157.964 0.28902 158.258 1.10719e-07 158.799 1.10719e-07H159.006C159.472 1.10719e-07 159.799 0.193562 159.987 0.609856L162.453 5.51258V0.819331C162.453 0.28902 162.744 1.10719e-07 163.288 1.10719e-07H163.468C164.009 1.10719e-07 164.304 0.28902 164.304 0.819331V8.43194C164.304 8.96225 164.009 9.25127 163.468 9.25127H163.256C162.789 9.25127 162.463 9.05771 162.275 8.64141L159.812 3.76521V8.43194C159.812 8.96225 159.517 9.25127 158.977 9.25127H158.802H158.799Z"/>
    <path d="M167.846 9.25127C167.305 9.25127 167.011 8.96225 167.011 8.43194V0.819331C167.011 0.28902 167.305 1.10719e-07 167.846 1.10719e-07H168.013C168.554 1.10719e-07 168.848 0.28902 168.848 0.819331V8.43194C168.848 8.96225 168.557 9.25127 168.013 9.25127H167.846Z"/>
    <path d="M174.318 9.24862C172.454 9.24862 171.166 7.9308 171.166 6.04289V3.19247C171.166 1.31252 172.454 1.10719e-07 174.318 1.10719e-07C176.182 1.10719e-07 177.256 1.15873 177.397 2.67276C177.445 3.21103 177.177 3.50535 176.628 3.50535H176.448C175.832 3.50535 175.692 3.21634 175.615 2.85838C175.488 2.25117 175.188 1.73412 174.316 1.73412C173.687 1.73412 173.006 2.06821 173.006 3.13149V6.10123C173.006 7.13798 173.616 7.51185 174.316 7.51185C175.228 7.51185 175.528 6.93381 175.628 6.32395C175.697 5.94478 175.832 5.63985 176.448 5.63985H176.623C177.195 5.63985 177.445 6.00046 177.397 6.53873C177.256 8.07928 176.135 9.25392 174.318 9.25392V9.24862Z"/>
  </g>
  <!-- Small group 1 (text3) -->
  <g transform="translate(265.85, 33.79)" fill="#FFFFFF">
    <path d="M6.3543 7.88042C6.00695 7.45352 5.69143 6.84896 5.41302 6.0641C5.13461 5.27924 4.93043 4.24779 4.8058 2.96709H0.369758C0.255741 2.96709 0.165583 2.92997 0.0992946 2.85838C0.0330057 2.78678 0.00118838 2.69928 0.00118838 2.59587C0.00118838 2.49246 0.0330057 2.40761 0.0992946 2.33867C0.165583 2.26973 0.255741 2.23526 0.369758 2.23526H4.74217C4.69974 1.67578 4.67323 1.07123 4.65997 0.424248C4.65997 0.304928 4.69975 0.20417 4.78195 0.127275C4.86415 0.0503802 4.9596 0.0106063 5.07627 0.0106063C5.19293 0.0106063 5.28838 0.0450763 5.36793 0.114017C5.44748 0.182957 5.48991 0.286367 5.48991 0.424248C5.48991 1.07388 5.50847 1.67843 5.54294 2.23526H7.7888C7.89751 2.23526 7.98501 2.26973 8.0513 2.33867C8.11759 2.40761 8.14941 2.49246 8.14941 2.59587C8.14941 2.69928 8.11759 2.78413 8.0513 2.85838C7.98501 2.92997 7.89751 2.96709 7.7888 2.96709H5.60658C5.71529 4.06749 5.88763 4.97432 6.12627 5.68493C6.36226 6.3982 6.63539 6.93646 6.94297 7.30238C7.10471 7.48799 7.24258 7.47473 7.3566 7.2573C7.40432 7.15389 7.45472 7.04518 7.5051 6.92851C7.55548 6.81184 7.60318 6.70578 7.64561 6.60767C7.68803 6.49896 7.75698 6.42471 7.85243 6.38229C7.94789 6.33986 8.04865 6.33986 8.14941 6.38229C8.26342 6.42471 8.34032 6.49365 8.38009 6.58911C8.41986 6.68456 8.42253 6.78533 8.39336 6.88609C8.34563 7.03722 8.28729 7.18041 8.221 7.31564C8.15472 7.45087 8.08843 7.58875 8.02214 7.72663C7.81797 8.16413 7.56342 8.38952 7.25583 8.39747C6.94825 8.40542 6.64862 8.23307 6.3543 7.87776V7.88042ZM0.502336 7.99709C0.369758 8.02095 0.261047 8.00239 0.173546 7.93875C0.0860446 7.87512 0.0303606 7.78761 0.00649666 7.6736C-0.0120642 7.56488 0.00914563 7.46677 0.0701314 7.38192C0.131117 7.29442 0.223918 7.24139 0.348541 7.22283C0.528847 7.20427 0.725068 7.17775 0.93454 7.14063V4.39097C0.93454 4.27165 0.971658 4.17355 1.0459 4.10195C1.12014 4.03036 1.21296 3.99324 1.32167 3.99324C1.43039 3.99324 1.52053 4.03036 1.59743 4.10195C1.67167 4.17355 1.70879 4.269 1.70879 4.39097V7.02396C1.83606 7.0001 1.96334 6.97889 2.09592 6.96033C2.2285 6.94177 2.36108 6.92055 2.49366 6.89669V3.73339C2.49366 3.61407 2.53343 3.51596 2.61032 3.44437C2.68722 3.37277 2.78267 3.33566 2.88873 3.33566C2.9948 3.33566 3.09025 3.37277 3.16714 3.44437C3.24404 3.51596 3.28381 3.61142 3.28381 3.73339V4.58984H4.36565C4.47967 4.58984 4.56983 4.62696 4.63611 4.7012C4.7024 4.77545 4.73422 4.8656 4.73422 4.96636C4.73422 5.06712 4.7024 5.15462 4.63611 5.22887C4.56983 5.30046 4.47967 5.33758 4.36565 5.33758H3.28381V6.75351C3.55427 6.70578 3.81148 6.65805 4.05542 6.61298C4.29937 6.5679 4.51414 6.52812 4.69975 6.491C4.80316 6.46714 4.89066 6.4804 4.9649 6.53077C5.03915 6.58115 5.08687 6.65805 5.10543 6.76146C5.12399 6.85692 5.10808 6.94442 5.06036 7.02396C5.01263 7.10086 4.94104 7.15389 4.84293 7.17775C4.58573 7.23874 4.26754 7.30503 3.89632 7.38192C3.5251 7.45882 3.12738 7.53306 2.71108 7.61261C2.29214 7.6895 1.89176 7.76375 1.50198 7.83269C1.11485 7.90163 0.778092 7.95731 0.497028 7.99974L0.502336 7.99709ZM1.22355 1.39737C1.11484 1.39737 1.02734 1.36025 0.961049 1.28866C0.894761 1.21706 0.862943 1.13222 0.862943 1.03676C0.862943 0.93335 0.894761 0.8485 0.961049 0.779559C1.02734 0.710619 1.11484 0.676149 1.22355 0.676149H3.63913C3.74784 0.676149 3.83534 0.710619 3.90163 0.779559C3.96792 0.8485 3.99974 0.93335 3.99974 1.03676C3.99974 1.13222 3.96792 1.21706 3.90163 1.28866C3.83534 1.36025 3.74784 1.39737 3.63913 1.39737H1.22355ZM7.40965 1.84813C7.33275 1.91973 7.23728 1.9542 7.13122 1.94624C7.02251 1.94094 6.92969 1.89851 6.85279 1.81897C6.79181 1.75268 6.71491 1.67578 6.62211 1.58828C6.52931 1.50078 6.43652 1.41328 6.34637 1.32312C6.25622 1.23297 6.17932 1.16138 6.11303 1.1057C6.03614 1.03941 5.99635 0.954561 6.00166 0.853802C6.00431 0.753043 6.04144 0.66819 6.11303 0.601902C6.18993 0.525006 6.28271 0.482584 6.38877 0.479932C6.49483 0.477281 6.58766 0.511751 6.67251 0.583343C6.7441 0.636374 6.82894 0.710615 6.9297 0.800768C7.02781 0.890921 7.12591 0.981075 7.22402 1.07123C7.31947 1.16138 7.39108 1.23297 7.44146 1.28866C7.52631 1.36555 7.56342 1.46101 7.55546 1.57237C7.54751 1.68374 7.49977 1.77654 7.41492 1.84813H7.40965Z"/>
    <path d="M9.49112 8.33914C9.38771 8.28611 9.32408 8.20921 9.29756 8.11375C9.27105 8.0183 9.28428 7.9255 9.33731 7.83534C9.60247 7.38458 9.78544 6.90465 9.8862 6.3929C9.98696 5.88115 10.04 5.29515 10.04 4.63492V4.05688C10.04 3.67771 10.0877 3.38604 10.1805 3.17656C10.2733 2.96974 10.4351 2.82391 10.6684 2.73906C10.8991 2.65421 11.2173 2.61178 11.6203 2.61178H14.5317C14.5264 2.56405 14.5238 2.51633 14.5238 2.4686V2.32541C14.4204 2.32011 14.3329 2.28299 14.2586 2.21405C14.1844 2.14511 14.1472 2.05231 14.1472 1.93829V1.55116H12.7128V1.99397C12.7128 2.10799 12.673 2.20079 12.5961 2.27238C12.5192 2.34397 12.429 2.3811 12.3256 2.3811C12.2169 2.3811 12.1268 2.34397 12.0499 2.27238C11.9756 2.20079 11.9385 2.10799 11.9385 1.99397V1.55116H9.77482C9.68997 1.55116 9.61839 1.51934 9.55476 1.4557C9.49112 1.39207 9.4593 1.31783 9.4593 1.23563C9.4593 1.14548 9.49112 1.06858 9.55476 1.00494C9.61839 0.941303 9.69263 0.909485 9.77482 0.909485H11.9385V0.387128C11.9385 0.273112 11.9756 0.180308 12.0499 0.108717C12.1241 0.0371246 12.2169 3.87796e-06 12.3256 3.87796e-06C12.4264 3.87796e-06 12.5165 0.0371246 12.5961 0.108717C12.673 0.180308 12.7128 0.273112 12.7128 0.387128V0.909485H14.1472V0.387128C14.1472 0.273112 14.187 0.180308 14.2639 0.108717C14.3408 0.0371246 14.431 3.87796e-06 14.5344 3.87796e-06C14.6431 3.87796e-06 14.7359 0.0371246 14.8128 0.108717C14.8897 0.180308 14.9295 0.273112 14.9295 0.387128V0.909485H17.2734C17.3636 0.909485 17.4405 0.941303 17.5041 1.00494C17.5677 1.06858 17.5996 1.14548 17.5996 1.23563C17.5996 1.32048 17.5677 1.39207 17.5041 1.4557C17.4405 1.51934 17.3636 1.55116 17.2734 1.55116H16.12C16.173 1.56972 16.2234 1.59889 16.2632 1.64132C16.4302 1.79776 16.5787 1.94624 16.706 2.08412C16.7776 2.16102 16.8147 2.25117 16.8147 2.34928C16.8147 2.44739 16.7723 2.53224 16.6874 2.59853L16.6689 2.61709H17.2628C17.353 2.61709 17.4299 2.65156 17.4935 2.7205C17.5571 2.78944 17.5889 2.86899 17.5889 2.95914C17.5889 3.04929 17.5571 3.12884 17.4935 3.19778C17.4299 3.26672 17.353 3.30119 17.2628 3.30119H15.2874C15.3166 3.73869 15.359 4.15499 15.4147 4.55007C15.4704 4.94515 15.5446 5.30841 15.6401 5.64516C15.9105 5.17053 16.128 4.65083 16.2897 4.08605C16.3189 3.97203 16.3852 3.89513 16.4886 3.85536C16.5893 3.81559 16.6901 3.81824 16.7855 3.86066C16.881 3.89779 16.9499 3.95612 16.9923 4.03567C17.0348 4.11787 17.0374 4.21067 17.0003 4.31938C16.8677 4.72242 16.7166 5.1069 16.5442 5.47281C16.3719 5.83872 16.1757 6.18608 15.953 6.50957C16.1094 6.84631 16.2897 7.11942 16.4939 7.3289C16.5893 7.42435 16.6662 7.46678 16.7246 7.45617C16.7829 7.44291 16.8306 7.38193 16.873 7.26791C16.9632 7.05844 17.0454 6.84366 17.117 6.62889C17.1541 6.52548 17.2177 6.45654 17.3106 6.41676C17.4034 6.37699 17.5041 6.37964 17.6128 6.42207C17.703 6.45919 17.7693 6.51487 17.8117 6.58911C17.8541 6.66335 17.8594 6.75351 17.8302 6.85427C17.7878 6.98684 17.7348 7.13268 17.6738 7.29178C17.6128 7.45087 17.5465 7.59935 17.4803 7.73723C17.3185 8.10315 17.109 8.30732 16.8545 8.34444C16.5999 8.38422 16.3401 8.26489 16.0749 7.98913C15.8336 7.73723 15.6295 7.45617 15.4624 7.15124C15.2768 7.35541 15.0753 7.55163 14.8632 7.74254C14.6484 7.9308 14.4204 8.10845 14.1738 8.2702C14.0836 8.33118 13.9855 8.36035 13.8768 8.36035C13.7681 8.36035 13.6779 8.31527 13.6063 8.22512C13.5454 8.15353 13.5215 8.06603 13.5294 7.96262C13.5374 7.85921 13.5904 7.77966 13.6859 7.71868L13.7044 7.71072H12.6491C12.1268 7.71072 11.7661 7.62322 11.5673 7.44557C11.3684 7.26791 11.2703 6.96298 11.2703 6.53078V4.88151C11.2703 4.44931 11.3684 4.14438 11.5673 3.96673C11.7661 3.78907 12.1268 3.70157 12.6491 3.70157H14.0385C14.1234 3.70157 14.1923 3.73339 14.2506 3.79968C14.3063 3.86597 14.3355 3.94021 14.3355 4.02506C14.3355 4.10195 14.3063 4.1762 14.2506 4.24514C14.1923 4.31408 14.1234 4.34855 14.0385 4.34855H13.3544V4.84439C13.6726 4.85765 13.8927 4.92394 14.0173 5.04591C14.1393 5.16788 14.2029 5.38531 14.2029 5.69023C14.2029 5.99516 14.1419 6.2179 14.0173 6.33987C13.8953 6.45919 13.6726 6.52548 13.3544 6.53873V7.06109H14.1128C14.2215 7.06109 14.3063 7.11147 14.3647 7.21488C14.659 6.95768 14.9136 6.68987 15.131 6.41146C14.9745 5.98456 14.8499 5.51258 14.7571 4.99288C14.6643 4.47317 14.598 3.90839 14.5635 3.30119H11.6256C11.4029 3.30119 11.2332 3.31975 11.1112 3.35952C10.9919 3.39929 10.9071 3.47089 10.8593 3.5796C10.8116 3.68831 10.7877 3.84741 10.7877 4.05688V4.60575C10.7877 5.29781 10.7267 5.94478 10.6021 6.55199C10.4801 7.1592 10.2839 7.69481 10.0214 8.15618C9.97371 8.24633 9.89947 8.30997 9.79606 8.34974C9.69265 8.38952 9.59454 8.38422 9.49908 8.33649L9.49112 8.33914ZM11.9783 4.84174H12.673V4.3459H12.6465C12.3893 4.3459 12.2116 4.37772 12.1188 4.44401C12.026 4.51029 11.9783 4.64287 11.9783 4.84174ZM11.9783 5.95009H13.2033C13.3226 5.95009 13.3995 5.93153 13.434 5.89706C13.4658 5.85993 13.4843 5.79099 13.4843 5.69023C13.4843 5.58948 13.4685 5.51788 13.434 5.48341C13.4022 5.44629 13.3253 5.43038 13.2033 5.43038H11.9783V5.95274V5.95009ZM12.6465 7.05844H12.673V6.53608H11.9783C11.9783 6.74025 12.0234 6.87813 12.1188 6.94972C12.2143 7.02131 12.3866 7.05844 12.6465 7.05844ZM15.2609 2.61444H16.2155C16.2155 2.61444 16.2048 2.60383 16.1969 2.59587C16.1916 2.59057 16.1836 2.58527 16.1783 2.57731C16.1306 2.51633 16.0643 2.44474 15.9795 2.35723C15.8946 2.26973 15.8204 2.18753 15.7541 2.11064C15.6931 2.04435 15.6666 1.96746 15.6692 1.87995C15.6719 1.79245 15.7037 1.71821 15.7647 1.65987C15.8177 1.60684 15.8787 1.56972 15.945 1.55116H14.9268V1.84814C15.017 1.85344 15.0939 1.89321 15.1575 1.9595C15.2211 2.02844 15.2529 2.11329 15.2529 2.2167V2.41026C15.2529 2.47921 15.2556 2.54814 15.2609 2.61178V2.61444Z"/>
    <path d="M19.0844 6.10388C18.981 6.04289 18.9173 5.95804 18.8855 5.84137C18.8537 5.72471 18.8802 5.61864 18.9571 5.51788C19.156 5.24212 19.3575 4.91598 19.5643 4.54476C19.7712 4.1709 19.9647 3.79172 20.1424 3.39929C20.32 3.00951 20.4632 2.6489 20.5719 2.31746C20.6143 2.19814 20.6886 2.11064 20.7973 2.05496C20.906 1.99927 21.0174 1.99927 21.1314 2.047C21.2401 2.08943 21.3196 2.15571 21.37 2.24852C21.4204 2.34132 21.4257 2.44739 21.3833 2.56936C21.264 2.91936 21.1102 3.29853 20.9246 3.70952C20.739 4.12051 20.5401 4.5209 20.3333 4.90803C20.1265 5.29515 19.9223 5.63455 19.7261 5.92357C19.6545 6.03229 19.559 6.10388 19.4371 6.141C19.3177 6.17812 19.1984 6.16486 19.0844 6.10388ZM21.8685 8.24899C21.7253 8.24899 21.606 8.20921 21.5159 8.12701C21.4257 8.04481 21.3754 7.93875 21.3621 7.80618C21.3515 7.6736 21.3886 7.56223 21.4761 7.46678C21.5636 7.37397 21.6909 7.32094 21.8579 7.31033C22.1655 7.29177 22.3644 7.24935 22.4572 7.18306C22.55 7.11677 22.5977 6.97359 22.5977 6.75085V0.657586C22.5977 0.525009 22.6401 0.418945 22.7276 0.336746C22.8151 0.254548 22.9159 0.214777 23.0299 0.214777C23.1492 0.214777 23.2526 0.254548 23.3401 0.336746C23.4276 0.418945 23.4701 0.525009 23.4701 0.657586V6.84101C23.4701 7.34481 23.3508 7.70541 23.1148 7.92284C22.8761 8.14027 22.4625 8.24633 21.8659 8.24633L21.8685 8.24899ZM26.9887 6.00312C26.8747 6.07471 26.7553 6.09857 26.6281 6.06941C26.5008 6.04289 26.4 5.97395 26.3205 5.86789C26.1269 5.57887 25.9228 5.24743 25.708 4.8709C25.4906 4.49438 25.2864 4.10461 25.0902 3.69892C24.8939 3.29323 24.7243 2.89815 24.5811 2.51367C24.5387 2.39966 24.5466 2.29094 24.6023 2.18488C24.658 2.07882 24.7455 2.00988 24.8595 1.97276C24.9735 1.93564 25.0822 1.94359 25.183 1.99132C25.2864 2.03905 25.358 2.11329 25.4004 2.2167C25.5383 2.54815 25.7027 2.90611 25.8962 3.29058C26.0872 3.67506 26.2913 4.04892 26.5035 4.41219C26.7156 4.77545 26.9171 5.09364 27.1027 5.36409C27.1796 5.45955 27.2088 5.57356 27.1849 5.70614C27.161 5.83872 27.0947 5.93683 26.986 6.00312H26.9887Z"/>
    <path d="M30.3801 8.38421C30.2713 8.38421 30.1812 8.34709 30.1043 8.27285C30.03 8.19861 29.9929 8.10315 29.9929 7.98913V4.27431C29.8312 4.5978 29.6615 4.91333 29.4838 5.21561C29.3062 5.51789 29.1497 5.77509 29.0118 5.98721C28.9509 6.07736 28.8634 6.1357 28.7493 6.15956C28.6353 6.18343 28.5319 6.16487 28.4418 6.10653C28.3516 6.04024 28.3012 5.95804 28.2933 5.85993C28.2853 5.76183 28.3092 5.66902 28.3702 5.58417C28.4895 5.40917 28.6274 5.19705 28.7812 4.94515C28.935 4.69325 29.0887 4.42545 29.2452 4.14173C29.4016 3.86066 29.5448 3.58755 29.6747 3.32505C29.8047 3.06255 29.9081 2.83982 29.9849 2.65421H28.7679C28.6724 2.65421 28.5876 2.61708 28.516 2.54549C28.4444 2.4739 28.4073 2.38905 28.4073 2.2936C28.4073 2.19284 28.4444 2.10534 28.516 2.0364C28.5876 1.96745 28.6724 1.93298 28.7679 1.93298H29.9929V0.482585C29.9929 0.363265 30.03 0.265158 30.1043 0.193566C30.1785 0.121974 30.2713 0.0848536 30.3801 0.0848536C30.4888 0.0848536 30.5816 0.121974 30.6585 0.193566C30.7353 0.265158 30.7751 0.360613 30.7751 0.482585V1.93298H31.8198C31.9232 1.93298 32.0081 1.96745 32.077 2.0364C32.146 2.10534 32.1804 2.19019 32.1804 2.2936C32.1804 2.38905 32.146 2.4739 32.077 2.54549C32.0081 2.61708 31.9232 2.65421 31.8198 2.65421H30.7751V3.24816C30.8759 3.37543 31.0058 3.53187 31.1623 3.71748C31.3187 3.90309 31.4751 4.08605 31.6316 4.2637C31.788 4.44136 31.9153 4.58454 32.0107 4.69325C32.0823 4.77015 32.1168 4.8603 32.1142 4.96371C32.1115 5.06712 32.0664 5.15197 31.9842 5.22621C31.9073 5.29781 31.8119 5.32962 31.7005 5.32167C31.5892 5.31371 31.5017 5.26864 31.4354 5.19175C31.3505 5.09099 31.2498 4.96371 31.1331 4.81788C31.0164 4.67204 30.8971 4.5209 30.7778 4.37241V7.99709C30.7778 8.11111 30.738 8.20656 30.6611 8.2808C30.5842 8.35505 30.4887 8.39217 30.3827 8.39217L30.3801 8.38421ZM32.4085 8.15883C32.2653 8.21186 32.1327 8.22512 32.016 8.19861C31.8994 8.17209 31.8119 8.0952 31.7589 7.96792C31.7058 7.8486 31.7058 7.73458 31.7589 7.62587C31.8119 7.51716 31.91 7.44026 32.0479 7.39253C32.5119 7.23079 32.9706 7.02662 33.4267 6.78533C33.8828 6.54404 34.3149 6.27093 34.7259 5.97395C35.1343 5.67698 35.4896 5.36675 35.7892 5.04061C35.8608 4.95576 35.9536 4.91068 36.0676 4.90538C36.1816 4.90007 36.2797 4.9372 36.3646 5.02205C36.4494 5.09894 36.4919 5.1944 36.4945 5.30576C36.4972 5.41713 36.46 5.51523 36.3831 5.60008C36.0597 5.95539 35.6805 6.29214 35.251 6.61298C34.8214 6.93382 34.3653 7.22548 33.8801 7.48799C33.3949 7.75049 32.9043 7.97322 32.4058 8.15883H32.4085ZM32.7877 5.57092C32.6736 5.6319 32.5596 5.64781 32.4456 5.62395C32.3316 5.60008 32.2414 5.52849 32.1751 5.40652C32.1141 5.2925 32.1089 5.18379 32.1539 5.07773C32.199 4.97167 32.2812 4.89477 32.4005 4.84704C32.7479 4.6959 33.1111 4.50499 33.4877 4.269C33.8642 4.03567 34.2195 3.78112 34.5615 3.51066C34.9009 3.2402 35.1847 2.97505 35.4127 2.71785C35.4896 2.633 35.5877 2.59057 35.7017 2.59057C35.8157 2.59057 35.9112 2.633 35.9907 2.71785C36.0756 2.8027 36.118 2.8955 36.118 2.99626C36.118 3.09702 36.0782 3.19247 36.0013 3.27467C35.7362 3.56899 35.4286 3.85801 35.0759 4.13908C34.7233 4.4228 34.3521 4.68265 33.9623 4.92394C33.5725 5.16523 33.1801 5.37735 32.7903 5.56296L32.7877 5.57092ZM32.8672 3.15535C32.7479 3.22164 32.6312 3.24285 32.5198 3.22429C32.4085 3.20308 32.3183 3.14209 32.2441 3.03868C32.1831 2.93527 32.1672 2.83186 32.1911 2.72315C32.2149 2.61443 32.2812 2.53224 32.3899 2.47125C32.8699 2.20609 33.3365 1.89587 33.7873 1.53791C34.2381 1.17995 34.6119 0.827288 34.9062 0.479934C34.9831 0.395085 35.0812 0.352661 35.2006 0.352661C35.3199 0.352661 35.4153 0.38978 35.4922 0.461372C35.5771 0.538267 35.6195 0.633723 35.6222 0.739786C35.6248 0.845848 35.5904 0.943954 35.5188 1.0288C35.1953 1.40267 34.7949 1.77654 34.3256 2.15571C33.8536 2.53489 33.3683 2.86898 32.8698 3.15535H32.8672Z"/>
    <path d="M38.5018 8.42929C38.3984 8.42929 38.3135 8.39482 38.2393 8.32588C38.1677 8.25694 38.1306 8.16413 38.1306 8.05012V1.50608C38.1306 1.20645 38.1677 0.973121 38.2419 0.808724C38.3161 0.644328 38.454 0.530309 38.6556 0.466672C38.8571 0.403035 39.1408 0.371216 39.5067 0.371216C40.09 0.371216 40.4692 0.487883 40.6469 0.718569C40.8245 0.949254 40.8166 1.25153 40.6257 1.6254C40.5355 1.80571 40.4321 2.00457 40.3181 2.21935C40.2041 2.43678 40.0953 2.6436 39.9946 2.84247C39.923 2.98035 39.8885 3.08111 39.8965 3.14474C39.9018 3.20838 39.9628 3.29853 40.0768 3.4205C40.2332 3.57164 40.3685 3.74134 40.4825 3.9296C40.5965 4.11786 40.6813 4.32203 40.7344 4.53681C40.7582 4.46522 40.8033 4.40423 40.8643 4.3565C40.9279 4.30877 41.0048 4.28491 41.095 4.28491H45.6663C45.7856 4.28491 45.8811 4.32203 45.95 4.39893C46.0189 4.47317 46.0534 4.56597 46.0534 4.67469C46.0534 4.77544 46.0189 4.86825 45.95 4.94515C45.8811 5.02204 45.7856 5.06181 45.6663 5.06181H44.3219V7.06374C44.3219 7.24404 44.3617 7.36071 44.4386 7.4164C44.5155 7.46943 44.6666 7.49859 44.8894 7.49859C45.0803 7.49859 45.2129 7.45882 45.2818 7.38192C45.3507 7.30503 45.4197 7.13798 45.486 6.88608C45.5151 6.76676 45.5788 6.68457 45.6742 6.64214C45.7697 6.59972 45.8758 6.59706 45.9898 6.63418C46.2231 6.70047 46.3185 6.85427 46.2682 7.09291C46.1833 7.55693 46.0322 7.87246 45.8121 8.04481C45.592 8.21716 45.2818 8.30201 44.8788 8.30201C44.4041 8.30201 44.0621 8.22777 43.8499 8.08193C43.6405 7.93345 43.5344 7.66034 43.5344 7.2573V5.06712H42.8768C42.8291 5.87849 42.6302 6.55199 42.2829 7.0876C41.9329 7.62321 41.4026 8.03155 40.6867 8.31262C40.5779 8.35504 40.4719 8.363 40.3658 8.33913C40.2597 8.31527 40.1776 8.24633 40.1192 8.13231C40.0715 8.04216 40.0662 7.94671 40.1006 7.8433C40.1378 7.73988 40.2094 7.66829 40.3181 7.62587C40.9253 7.37927 41.3655 7.05313 41.6386 6.64744C41.9117 6.24175 42.0761 5.7141 42.1291 5.06446H41.0923C41.026 5.06446 40.9651 5.05121 40.912 5.02469C40.859 4.99818 40.8166 4.96371 40.7848 4.92128V5.04856C40.7848 5.54174 40.6522 5.91031 40.387 6.15691C40.1219 6.4035 39.7745 6.53077 39.3423 6.53608C39.0772 6.53608 38.9313 6.42206 38.8995 6.19403C38.8704 5.93683 39.0056 5.79099 39.3052 5.76182C39.5571 5.73266 39.7347 5.65311 39.8381 5.52849C39.9389 5.40121 39.992 5.18379 39.992 4.8709C39.992 4.62431 39.9283 4.39628 39.8037 4.18946C39.6764 3.98263 39.5359 3.79437 39.3794 3.62732C39.2362 3.47088 39.1594 3.3277 39.1541 3.19512C39.1488 3.06254 39.1938 2.89284 39.2893 2.68072C39.337 2.57996 39.398 2.45534 39.4696 2.30685C39.5412 2.15836 39.6101 2.01253 39.6764 1.86404C39.7427 1.71555 39.7931 1.60154 39.8302 1.51669C39.8965 1.36025 39.9071 1.24888 39.862 1.18259C39.8169 1.1163 39.6658 1.08448 39.4059 1.08448C39.1779 1.08448 39.0294 1.111 38.9632 1.16668C38.8969 1.21971 38.865 1.34434 38.865 1.53525V8.06337C38.865 8.17739 38.8306 8.27019 38.7616 8.33913C38.6927 8.40808 38.6052 8.44255 38.4965 8.44255L38.5018 8.42929ZM41.1268 3.25345C41.0128 3.25345 40.912 3.21633 40.8298 3.14209C40.745 3.06784 40.7026 2.96709 40.7026 2.83981V2.42617C40.7026 1.98866 40.7954 1.67843 40.981 1.49813C41.1666 1.31782 41.5166 1.22767 42.0257 1.22767H42.8821V0.461368C42.8821 0.32879 42.9246 0.225381 43.0094 0.145834C43.0943 0.068939 43.195 0.0291651 43.317 0.0291651C43.439 0.0291651 43.5397 0.068939 43.6246 0.145834C43.7094 0.222729 43.7518 0.32879 43.7518 0.461368V1.22767H44.6985C45.2155 1.22767 45.5655 1.31782 45.7538 1.49813C45.9394 1.67843 46.0322 1.98866 46.0322 2.42617V2.83981C46.0322 2.96709 45.9924 3.06784 45.9102 3.14209C45.828 3.21633 45.7273 3.25345 45.6079 3.25345C45.4886 3.25345 45.3958 3.21633 45.311 3.14209C45.2261 3.06784 45.1837 2.96709 45.1837 2.83981V2.49776C45.1837 2.3042 45.1439 2.16897 45.0617 2.08677C44.9795 2.00457 44.8257 1.9648 44.5977 1.9648H42.1371C41.909 1.9648 41.7526 2.00457 41.6677 2.08677C41.5829 2.16897 41.5405 2.3042 41.5405 2.49776V2.83981C41.5405 2.96709 41.5007 3.06784 41.4185 3.14209C41.3363 3.21633 41.2408 3.25345 41.1268 3.25345ZM41.9912 3.51596C41.8772 3.51596 41.787 3.47884 41.7207 3.40724C41.6545 3.33565 41.6226 3.24815 41.6226 3.14474C41.6226 3.04133 41.6545 2.95383 41.7207 2.87959C41.787 2.80534 41.8772 2.76557 41.9912 2.76557H44.7594C44.8735 2.76557 44.9636 2.80269 45.0299 2.87959C45.0962 2.95383 45.128 3.04398 45.128 3.14474C45.128 3.2455 45.0962 3.333 45.0299 3.40724C44.9636 3.47884 44.8735 3.51596 44.7594 3.51596H41.9912Z"/>
  </g>
  <!-- Small group 2 (text4 - border rectangle) -->
  <g transform="translate(259.79, 30.8)" fill="#FFFFFF">
    <path d="M0.20161 0.100768H0.10085V14.2998H58.2971V0.100768H0.198956H0.20161ZM0.824719 13.4487V0.951916H57.5759V13.4487H0.824719Z"/>
    <path d="M58.3978 14.4006H0V0H58.3978V14.4006ZM0.198867 14.1991H58.1963V0.198867H0.198867V14.1991ZM57.6739 13.5494H0.721215V0.851148H57.6739V13.5494ZM0.922736 13.3479H57.4751V1.05001H0.922736V13.3479Z"/>
  </g>
</svg>
