<svg width="102" height="80" viewBox="0 0 102 80" fill="none" xmlns="http://www.w3.org/2000/svg">
<path d="M44.7578 47.3295C44.7578 47.3295 50.3476 36.5556 25.1871 25.7817L0.0308933 15.0078C0.0308933 15.0078 -2.76181 43.7425 44.7578 47.3295Z" fill="#065B8B"/>
<path d="M54.9812 59.2907C54.9812 59.2907 49.182 50.9212 27.8527 50.738L6.52344 50.5547C6.52344 50.5547 22.6644 73.189 54.9856 59.2951L54.9812 59.2907Z" fill="#065B8B"/>
<path d="M62.8545 65.1728C62.8545 65.1728 57.7709 58.479 43.6765 67.8303L29.582 77.1773C29.582 77.1773 46.6873 88.7061 62.8545 65.1685V65.1728Z" fill="#065B8B"/>
<path d="M45.8655 4.09311V49.2788C45.8655 50.4265 46.795 51.3603 47.947 51.3603H99.4767C100.795 51.3603 101.497 52.0585 101.497 53.3807V53.5334C101.497 54.8512 100.799 55.5538 99.4767 55.5538H41.6634C39.403 55.5538 37.5703 53.721 37.5703 51.4607V4.09311C37.5703 1.83274 39.403 0 41.6634 0H41.7725C44.0328 0 45.8655 1.83274 45.8655 4.09311Z" fill="#065B8B"/>
<path d="M83.4176 18.2196L101.108 69.8112C101.575 71.2076 100.951 72.1414 99.4757 72.1414H95.4437C94.2001 72.1414 93.5019 71.6003 93.1135 70.5094L88.379 55.6162H68.2846L63.5501 70.5094C63.1618 71.5959 62.4636 72.1414 61.22 72.1414H57.4193C55.9444 72.1414 55.3247 71.2119 55.7873 69.8112L73.4773 18.2196C73.8657 17.1331 75.3188 13.9258 78.3907 13.9258C81.0395 13.9258 83.0162 17.1374 83.4045 18.2196H83.4089H83.4176ZM87.2183 51.7369L78.3733 24.1149L69.5283 51.7369H87.2183Z" fill="#065B8B"/>
</svg>
